<svg width="71" height="64" viewBox="0 0 71 64" fill="none" xmlns="http://www.w3.org/2000/svg">
<path fill-rule="evenodd" clip-rule="evenodd" d="M36.0152 2.9789C35.359 3.19765 33.8017 8.2289 34.0725 8.80182C34.3433 9.37473 37.5985 6.68723 37.6558 6.41119C37.859 5.40598 36.7183 2.74452 36.0152 2.9789ZM67.1558 15.0101C66.6402 13.9216 60.859 13.4268 60.2235 14.4216C59.5829 15.4164 63.0725 21.0414 63.3381 20.9789C64.1506 20.7914 67.6767 16.1039 67.1558 15.0101ZM33.9162 24.1143C33.6142 24.6352 32.635 24.9164 32.3485 24.8122C32.135 24.7289 31.5204 23.8174 31.885 23.182C32.1142 22.7914 34.1819 23.656 33.9162 24.1143Z" fill="white"/>
<path fill-rule="evenodd" clip-rule="evenodd" d="M67.5152 40.9684C67.5152 40.9684 66.2131 43.583 65.9266 44.1559C64.8329 46.3434 63.3954 48.2862 61.6662 49.9945C61.5412 50.1143 59.7756 51.6559 59.8641 51.7184C60.7183 52.3591 62.2391 52.3903 63.2287 52.333C64.8485 52.2497 66.4266 51.4945 67.312 50.0778C68.1245 48.7862 68.4995 42.7028 67.5152 40.9684ZM8.85889 45.0934C7.15056 45.9372 5.56202 47.6872 4.50473 49.2341L4.01514 49.7862C4.04119 49.8226 3.93702 51.4945 3.95785 51.7028C4.09327 52.7862 5.79119 58.3226 6.37452 58.2341C6.50994 58.2132 6.47869 57.6195 6.48389 57.5362C6.58285 55.7289 6.93181 53.932 7.33285 52.1716C7.87973 49.7237 8.95265 45.0518 8.85889 45.0934ZM50.8797 43.7809C50.8797 43.7809 55.1662 61.2914 55.0829 61.2393C53.8797 60.5257 42.1037 54.4684 41.562 53.1664C40.8745 51.5153 48.1454 44.9528 50.8797 43.7809Z" fill="#F1E9B2"/>
<path d="M66.0361 55.8903C66.0465 55.906 66.0204 55.9424 66.01 55.9528C64.734 58.1091 60.0309 62.1924 57.9319 63.3226M21.2757 37.2445C18.4944 38.7185 15.0725 40.1924 12.4423 41.932C5.97358 46.2081 -1.39621 54.781 1.74962 63.3018M23.7027 35.2341C23.8538 35.0622 23.8746 35.0831 23.7027 35.2341C23.0517 35.8122 22.3798 36.3747 21.7184 36.9372C19.8902 38.4893 18.135 40.1091 16.5621 41.9268C11.9944 47.2081 7.55171 53.7966 6.45796 63.2601M24.6663 31.9216C24.7132 31.9737 24.609 32.0414 24.5829 32.1091C23.8277 34.0153 23.3694 36.4581 24.2079 38.406M59.8642 40.8122C59.8642 40.8122 55.4684 41.057 51.3746 43.2706C43.859 47.3331 39.3121 56.6143 33.9371 63.1143M65.4163 22.1195C65.4006 22.1091 65.4058 22.307 65.4058 22.3226C65.3954 23.6403 65.5048 24.9529 65.6246 26.2654C65.885 29.182 66.3746 32.0726 66.859 34.9581C67.7965 40.531 68.4892 46.1195 68.1558 51.7862C67.9996 54.4685 68.2496 60.4528 68.135 63.1299M42.0882 5.22369C42.0986 5.24973 43.9215 4.93723 44.0256 4.92681C46.0204 4.70806 48.0725 4.74452 50.0361 5.19244C55.5256 6.43723 59.734 9.92681 64.8902 11.6195C66.4371 12.1247 70.2965 12.7966 70.3069 12.8331C70.3329 12.9112 67.3225 20.4893 64.484 23.1508M38.7131 6.19765C39.0465 5.81744 36.2079 7.71327 35.7704 8.03098C33.8746 9.42681 32.0152 10.9945 30.6454 12.9424C28.9319 15.3851 29.1402 18.2654 27.0621 20.2914C23.2809 23.9841 21.0986 28.6976 27.0465 34.9685M33.1611 10.1143C33.0257 8.27056 33.8694 6.03619 34.4892 4.28619C34.7652 3.51535 35.2027 1.55702 35.9736 1.08307C37.0882 0.400774 43.4163 4.12473 44.5569 4.87473" stroke="#BBAEC6" stroke-width="0.674685" stroke-miterlimit="10" stroke-linecap="round" stroke-linejoin="round"/>
<path d="M39.1871 26.2029C39.1871 26.2029 49.5829 26.8175 54.6246 28.6612M32.2704 25.2289C31.9996 28.4581 33.6402 29.8331 34.885 30.3748M32.2131 25.13C32.0673 25.156 30.1871 28.4112 27.7288 28.6664" stroke="#BBAEC6" stroke-width="0.674685" stroke-miterlimit="10" stroke-linecap="round" stroke-linejoin="round"/>
<path d="M25.1506 28.1247C25.3225 28.1716 24.7964 28.1716 24.6245 28.2185C24.3485 28.2966 24.0725 28.3903 23.8016 28.4841C23.0985 28.7237 22.4006 28.9893 21.7235 29.2862C19.6714 30.1768 17.6923 31.2966 15.8537 32.5778M26.2548 26.0466C26.26 26.0414 25.1454 26.0206 25.0152 26.0206C23.9839 26.0101 22.9527 26.0778 21.9266 26.1768C18.9475 26.4685 15.9943 27.0831 13.1714 28.0935M29.1558 24.1508C28.3225 23.7914 26.135 23.432 24.8745 23.2914C19.6766 22.7341 15.3746 23.7341 10.5673 25.5831M36.9318 28.1143C37.1454 28.2081 37.5881 28.5935 37.7131 28.7081C38.7912 29.682 39.7808 30.7497 40.8745 31.7028C44.0672 34.4737 47.7131 37.057 51.8537 38.0726M37.7391 26.9528C38.2808 27.1872 38.812 27.4424 39.3433 27.7081C40.5829 28.3278 41.8068 28.9893 43.0412 29.6247C46.7652 31.5414 50.6714 32.4216 54.7704 33.0414" stroke="#BBAEC6" stroke-width="0.674685" stroke-miterlimit="10" stroke-linecap="round" stroke-linejoin="round"/>
<path fill-rule="evenodd" clip-rule="evenodd" d="M29.6194 20.0257C29.4059 20.5934 31.6663 21.7549 31.8799 21.182C32.3174 20.0101 29.8955 19.2809 29.6194 20.0257ZM39.6924 23.6872C38.7549 24.109 36.8694 23.1976 37.0674 22.6611C37.5934 21.2757 40.3746 23.3747 39.6924 23.6872Z" fill="#BBAEC6"/>
</svg>
