<svg width="94" height="69" viewBox="0 0 94 69" fill="none" xmlns="http://www.w3.org/2000/svg">
<path d="M17.1142 42.2601C15.6194 44.0153 14.0309 45.9164 12.5517 47.8955C12.4632 48.0205 12.3225 48.083 12.1819 48.083C12.083 48.083 11.9892 48.0518 11.9059 47.9945C11.7027 47.8434 11.6559 47.557 11.8069 47.3539C13.3017 45.3539 14.9007 43.4372 16.4059 41.6716C16.5725 41.4789 16.8642 41.4528 17.0569 41.6143C17.2548 41.7809 17.2757 42.0674 17.1142 42.2601ZM19.359 41.4268C19.4319 41.5518 19.4684 41.7497 19.333 41.932C19.2861 42.0466 19.2392 42.1664 19.1923 42.2914C19.1663 42.3591 19.135 42.432 19.109 42.4997C18.9007 43.0205 18.6871 43.5466 18.484 44.0466C17.7757 45.7705 17.2392 47.1143 16.7444 48.3903C16.6767 48.5726 16.4996 48.682 16.3121 48.682C16.26 48.682 16.2027 48.6716 16.1507 48.6507C15.9111 48.5622 15.7913 48.2966 15.885 48.0622C16.3746 46.7809 16.9163 45.4372 17.6246 43.7028C17.8277 43.208 18.0465 42.682 18.2496 42.1664C18.2757 42.0986 18.3017 42.0309 18.3277 41.9632C18.385 41.8174 18.4423 41.6716 18.5048 41.5205C18.5257 41.4789 18.5465 41.4476 18.5673 41.4216C18.6246 41.3226 18.7236 41.2497 18.8434 41.2184C19.0413 41.1664 19.2496 41.2549 19.359 41.4268ZM24.2288 36.9372C24.234 36.7757 24.2392 36.6247 24.2392 36.4736C24.3538 36.4841 24.4892 36.4893 24.6298 36.4945C24.51 36.6247 24.3746 36.7757 24.2288 36.9372ZM26.109 35.5726C25.9632 35.5726 25.7757 35.5778 25.5621 35.5778C25.1142 35.583 24.51 35.5934 24.2184 35.5518C24.1611 35.5466 24.0517 35.5257 23.984 35.5101C23.7705 35.3747 23.484 35.4372 23.3486 35.6507C23.2705 35.7705 23.2548 35.9216 23.3017 36.057C23.3538 36.8226 23.2548 38.0674 23.01 38.7914C22.9319 39.0257 23.0621 39.2861 23.3017 39.3643C23.3538 39.3851 23.4007 39.3903 23.4475 39.3903C23.6455 39.3903 23.8225 39.2705 23.8902 39.0778C23.9527 38.8903 24.0048 38.6768 24.0517 38.4528C24.1455 38.3851 24.2392 38.2914 24.3382 38.182C24.4475 38.0622 24.6038 37.8903 24.7705 37.708C25.109 37.3278 25.7444 36.6247 25.885 36.5205C25.9007 36.5101 25.9111 36.4997 25.9267 36.4893C25.9892 36.4893 26.0465 36.4893 26.0986 36.4893C26.3486 36.4893 26.5621 36.2914 26.5621 36.0361C26.5673 35.7861 26.3642 35.5778 26.109 35.5726ZM23.0309 32.4372C22.9215 32.1403 23.984 31.1143 24.5986 31.4684C25.2236 31.8278 23.2548 33.0257 23.0309 32.4372ZM18.0517 36.4476C17.583 36.0049 18.9007 34.5778 19.5621 34.9007C20.109 35.1716 18.5569 36.932 18.0517 36.4476ZM85.2965 33.5986C85.8538 34.932 85.5048 36.1351 85.01 37.0153C83.5986 39.5153 80.0673 41.2653 77.0048 41.182C77.1507 40.6559 77.4892 39.7966 77.7704 39.5309C78.1715 39.1507 78.9215 38.7445 79.7913 38.2757C81.6559 37.2653 84.1715 35.9059 85.2965 33.5986ZM78.3121 47.4945C78.2861 47.4945 78.26 47.4997 78.234 47.5049C76.8277 47.4007 75.6611 47.0882 75.0361 46.3226C74.8798 46.1247 74.5882 46.0934 74.3902 46.2549C74.1923 46.4111 74.1559 46.6976 74.3173 46.8955C75.7757 48.6976 78.9579 48.5361 82.3225 48.3591C85.3069 48.208 88.3902 48.0466 89.8173 49.4007C90.2288 49.7861 90.4059 50.5309 90.3434 51.6143C90.1246 55.6664 85.635 57.3226 81.6715 58.7809C80.4944 59.2184 79.385 59.6299 78.4475 60.0778C77.2236 60.6716 75.9944 61.3278 74.8017 61.9632C72.01 63.4476 69.1246 64.9841 66.0777 65.8278C58.4059 67.9476 49.7652 68.1559 41.0882 66.4216C38.2027 65.8434 35.3746 65.0726 32.7444 64.3226C32.4632 64.2445 32.1402 64.1507 31.8017 64.0466C34.7652 63.7445 37.708 62.5153 40.5882 60.3799C44.9163 57.1611 48.0465 52.3539 50.5361 48.0726C50.609 47.9528 50.6871 47.8226 50.7704 47.6872C51.1663 47.0414 51.6194 46.307 51.6871 45.5361C51.7548 44.807 51.4527 44.083 50.8329 43.4997C50.0882 42.8018 48.984 42.4164 48.0829 42.5466C44.7444 43.0205 41.885 45.7289 39.1194 48.3486C36.4527 50.8695 33.9371 53.2497 31.5361 52.9684C31.2809 52.9372 31.0517 53.1195 31.0205 53.3695C30.9892 53.6195 31.1715 53.8434 31.4215 53.8747C31.5934 53.8955 31.7652 53.9059 31.9371 53.9059C34.583 53.9059 37.0986 51.5205 39.7548 49.0049C42.4163 46.4893 45.1715 43.8799 48.2132 43.4528C48.8382 43.3643 49.6559 43.6559 50.1975 44.1664C50.4371 44.3851 50.8225 44.8486 50.7652 45.458C50.7184 46.0153 50.3277 46.6507 49.9788 47.2132C49.8954 47.3539 49.8121 47.4893 49.734 47.6195C47.2913 51.8174 44.2288 56.5309 40.0309 59.6507C32.3798 65.333 24.6923 64.2705 16.5257 56.4059C13.7548 53.7341 11.1559 50.6455 8.80691 47.2184C8.6767 47.0257 8.47357 46.7236 8.21837 46.333C10.1194 44.8278 12.3382 43.3591 15.2548 41.6768C15.4475 41.5674 15.6767 41.4111 15.9215 41.2497C16.5465 40.8278 17.4944 40.1924 18.0413 40.1924C18.0413 40.1924 18.0413 40.1924 18.0465 40.1924C18.2965 40.1924 18.5048 39.9893 18.5048 39.7393C18.51 39.4893 18.3017 39.2809 18.0465 39.2809H18.0413C17.2132 39.2809 16.208 39.9528 15.4059 40.4945C15.1715 40.6455 14.9527 40.7914 14.7861 40.8903C11.8694 42.5726 9.63503 44.0466 7.71837 45.557C5.88503 42.7289 2.60899 37.5361 1.82253 35.9216C1.74441 35.7601 1.63503 35.5778 1.52045 35.3903C1.33295 35.0778 1.08295 34.6611 1.02566 34.3747C1.49962 34.1716 3.44753 34.2705 4.58816 34.4632C5.03087 34.5361 5.48399 34.6143 5.9267 34.6976C6.54128 34.807 7.18191 34.9216 7.81732 35.0153C8.06732 35.057 8.30691 34.8851 8.34337 34.6351C8.37982 34.3851 8.20795 34.1559 7.95795 34.1143C8.0517 33.8903 8.1767 33.6299 8.23399 33.5153C8.85378 32.3539 9.54649 31.3955 10.3434 30.5882C12.5621 28.3382 15.7184 27.1247 19.2392 27.1611C21.5517 27.1924 23.4475 27.7184 24.8798 28.7341C25.5257 29.1872 26.0777 29.7497 26.6559 30.3486C26.8382 30.5361 27.0257 30.7236 27.2132 30.9111C27.0569 31.1507 26.9007 31.3955 26.7496 31.6455C26.5882 31.9216 26.4059 32.2341 26.3069 32.5882C26.208 32.9476 26.458 33.1143 26.5152 33.1455C26.583 33.1872 26.6663 33.208 26.7444 33.208C26.8642 33.208 26.984 33.1611 27.0777 33.0726C27.1559 32.9945 27.1975 32.8955 27.208 32.7966C27.2757 32.5726 27.4163 32.333 27.5517 32.1039C27.6611 31.9164 27.7757 31.7341 27.8955 31.5466C27.9527 31.5934 28.0048 31.6455 28.0621 31.6924C28.2861 31.8747 28.51 32.0309 28.7392 32.1768C28.6507 32.2705 28.5621 32.3643 28.4736 32.458L28.4215 32.5101C28.2809 32.6559 28.1402 32.807 28.0048 32.9632L27.984 32.9893C27.8642 33.1299 27.6142 33.4164 27.8642 33.7236C27.9527 33.833 28.0882 33.8955 28.2236 33.8955C28.3017 33.8955 28.385 33.8747 28.458 33.833C28.5517 33.7809 28.6246 33.7028 28.6611 33.6091C28.6715 33.5986 28.6767 33.5934 28.6871 33.583L28.7132 33.5518C28.833 33.4111 28.958 33.2809 29.0934 33.1351L29.1455 33.083C29.2757 32.9476 29.4111 32.807 29.5465 32.6664C29.7288 32.7809 29.9059 32.8903 30.0725 33.0101C29.9684 33.083 29.8694 33.1559 29.7705 33.2236C29.734 33.2497 29.6402 33.2966 29.5725 33.333C29.26 33.4945 28.9423 33.6611 28.9527 34.0153C28.958 34.2132 29.0777 34.3851 29.2705 34.4736C29.333 34.4997 29.4007 34.5153 29.4632 34.5153C29.6402 34.5153 29.8069 34.4164 29.885 34.2445C29.8902 34.2289 29.9007 34.2132 29.9059 34.1924C29.9371 34.1768 29.9736 34.1559 29.9996 34.1455C30.1142 34.083 30.2236 34.0257 30.3069 33.9684C30.4527 33.8643 30.5934 33.7653 30.7392 33.6611C30.859 33.833 30.9632 34.0205 31.0465 34.2445C31.6559 35.9059 31.2652 38.0518 29.8798 40.6247C29.76 40.8434 29.8486 41.1195 30.0725 41.2393C30.2965 41.3591 30.5777 41.2757 30.6975 41.0518C31.4996 39.5622 31.9892 38.1924 32.1715 36.9424C32.208 36.9268 32.2444 36.9007 32.2809 36.8695C32.3694 36.7914 32.4892 36.6716 32.6298 36.5361C32.9319 36.2445 33.3486 35.8434 33.5465 35.708C34.4684 35.0674 35.458 34.4789 36.4996 33.9684C39.833 32.3174 43.1194 31.3382 46.26 31.0674C48.2757 30.8903 53.3329 30.7861 56.7444 33.6195C57.8538 34.5414 58.4319 35.8799 58.2288 37.0309C58.0621 37.9632 57.4007 38.6611 56.3225 39.0518C54.6819 39.6403 52.8954 38.9528 51.1663 38.2861C50.4215 37.9997 49.6559 37.7028 48.9163 37.5205C45.5829 36.6872 41.7809 36.6247 38.2184 37.3434C37.9684 37.3903 37.8069 37.6351 37.8538 37.8799C37.9059 38.1299 38.1507 38.2861 38.4007 38.2393C41.833 37.5466 45.4892 37.6091 48.6871 38.4059C49.3746 38.5726 50.0829 38.8486 50.8329 39.1351C52.7184 39.8643 54.6715 40.6143 56.635 39.9111C58.0257 39.4111 58.9111 38.4424 59.1402 37.1872C59.4007 35.7236 58.6923 34.0466 57.3382 32.9216C57.234 32.833 57.1246 32.7445 57.01 32.6611C57.2861 32.6716 57.5621 32.682 57.8382 32.6924C62.3017 32.8799 66.9111 33.0726 71.3225 32.432C72.5152 32.2601 73.8486 31.9424 75.26 31.6091C77.7079 31.0257 80.2392 30.4216 82.3069 30.5153C82.3225 30.5153 82.3329 30.5153 82.3486 30.5153C82.9423 30.9059 83.51 31.3539 84.0569 31.8799C84.3382 32.1507 84.5725 32.4164 84.7704 32.682C84.6975 32.7341 84.635 32.8018 84.6038 32.8903C83.7027 35.1143 81.2861 36.4216 79.3486 37.4736C78.4215 37.9736 77.6194 38.4059 77.135 38.8695C76.5517 39.4164 76.1559 40.7914 76.109 40.9476C76.0934 40.9997 76.0882 41.0518 76.0934 41.0986C75.9111 41.0726 75.7288 41.0361 75.5517 40.9893C75.3017 40.932 75.0517 41.0778 74.9892 41.3226C74.9267 41.5674 75.0777 41.8174 75.3225 41.8747C77.1454 42.333 79.2809 42.0934 81.3382 41.208C83.3225 40.3486 84.9527 38.9841 85.8121 37.4632C87.0361 35.3018 86.6402 33.0882 84.7027 31.2236C82.1142 28.7393 79.0934 27.8591 75.8954 26.932C74.8954 26.6403 73.859 26.3434 72.8382 25.9893C66.3954 23.7653 61.2809 17.8122 60.3902 11.5153C59.9215 8.19239 61.109 5.36427 63.8277 3.34343C65.984 1.74448 71.2913 0.525726 73.9267 2.1976C75.1298 2.95802 75.5413 4.25489 75.1507 6.05177C75.0152 6.67677 73.5986 7.28614 72.2236 7.87989C70.0309 8.8226 67.3017 9.99968 66.6246 12.3226C66.1819 13.8486 66.6715 15.6039 68.1142 17.6924C70.8746 21.6768 75.3954 22.7914 79.7757 23.8695C84.9475 25.1507 89.8329 26.3539 91.7079 32.0622C93.1246 36.3747 90.8121 41.7914 86.5517 44.1351C86.1611 44.3486 85.7548 44.6143 85.3225 44.8955C83.6871 45.9632 81.6559 47.2914 78.3121 47.4945ZM14.7965 23.3643C14.984 23.432 15.3798 23.6924 15.5152 23.7861C15.6194 23.8539 15.6975 23.9111 15.76 23.9476C16.8434 24.5622 17.5309 25.2341 18.3225 26.0153C18.4059 26.0934 18.4892 26.1768 18.5725 26.2549C16.51 26.3226 14.5777 26.7966 12.8746 27.6455C13.3434 26.2132 14.3225 23.7601 14.7965 23.3643ZM86.9996 44.9372C89.2132 43.7184 91.0152 41.7184 92.0829 39.2966C93.1819 36.807 93.359 34.1351 92.5882 31.7757C90.5517 25.5934 85.1871 24.2653 79.9996 22.9841C75.7861 21.9476 71.4371 20.8747 68.8798 17.1768C67.6142 15.3539 67.1559 13.807 67.5152 12.5778C68.0673 10.6611 70.4736 9.62989 72.5934 8.71323C74.3954 7.94239 75.8173 7.32781 76.0517 6.24448C76.6559 3.49968 75.4996 2.10906 74.4267 1.42677C71.4319 -0.469066 65.6819 0.822601 63.2704 2.61427C60.2704 4.84864 58.9579 7.96844 59.4788 11.6403C59.9423 14.9684 61.484 18.2028 63.9267 20.9893C66.2652 23.6611 69.3225 25.7445 72.5309 26.8486C73.5777 27.2132 74.6246 27.5153 75.635 27.807C77.4371 28.333 79.1871 28.8382 80.8069 29.6351C78.9892 29.7809 76.9892 30.2549 75.0465 30.7184C73.6559 31.0518 72.3434 31.3643 71.1871 31.5309C66.8642 32.1559 62.2965 31.9632 57.8798 31.7809C57.4111 31.7601 56.9423 31.7445 56.484 31.7236C56.4632 31.7236 56.4215 31.7184 56.3746 31.7132C55.9944 31.6611 55.7132 31.6351 55.5048 31.7028C52.0621 29.9007 47.9736 29.9997 46.1819 30.1559C42.9215 30.4424 39.5257 31.4476 36.083 33.1507C35.0048 33.682 33.9736 34.2914 33.0152 34.958C32.8173 35.0986 32.5309 35.3643 32.2444 35.6351C32.2184 35.0309 32.109 34.4632 31.9111 33.932C31.8017 33.6247 31.6559 33.3643 31.4944 33.1351L31.6871 33.0049C32.7861 32.2393 33.9944 31.4372 35.3902 30.5414C35.6038 30.4059 35.6663 30.1195 35.5257 29.9111C35.3902 29.6976 35.1038 29.6403 34.8902 29.7757C33.484 30.6768 32.2652 31.4841 31.1559 32.2549L30.859 32.4632C30.6507 32.2914 30.4319 32.1403 30.2132 31.9997C30.2496 31.9632 30.2913 31.9216 30.3277 31.8851C31.5725 30.6716 32.7392 29.5986 33.9007 28.6039C34.0934 28.4372 34.1142 28.1455 33.9475 27.958C33.7809 27.7653 33.4892 27.7445 33.2965 27.9111C32.1194 28.9216 30.9371 30.0101 29.6819 31.2341C29.5882 31.3278 29.4944 31.4164 29.4007 31.5101C29.1455 31.3539 28.8902 31.1872 28.6559 30.9893C28.5725 30.9216 28.4944 30.8486 28.4111 30.7809C28.4163 30.7757 28.4215 30.7705 28.4267 30.7653L28.4788 30.6872C29.4892 29.2028 30.5882 27.7393 31.6507 26.3226L31.6975 26.2653C31.8486 26.0622 31.8069 25.7757 31.6038 25.6247C31.4007 25.4736 31.109 25.5153 30.958 25.7184L30.9111 25.7809C29.8486 27.1924 28.7548 28.6507 27.7392 30.1351C27.5986 29.9997 27.4632 29.8591 27.3225 29.7132C26.7392 29.1143 26.135 28.4945 25.4215 27.9893C23.9736 26.9684 22.1298 26.3903 19.9215 26.2705C19.9163 26.2653 19.9059 26.2549 19.9007 26.2497C19.5673 25.9476 19.2652 25.6507 18.9736 25.3643C18.1715 24.5778 17.4111 23.833 16.2236 23.1559C16.1871 23.1351 16.1142 23.083 16.0361 23.0361C15.4163 22.6143 14.9111 22.307 14.4788 22.4893C14.1611 22.6247 13.6767 23.0518 12.8121 25.1611C12.3382 26.3226 11.9267 27.5466 11.8173 27.9476C11.7861 28.0466 11.7965 28.1455 11.8277 28.2289C11.0465 28.7184 10.3277 29.2966 9.68191 29.9476C8.82253 30.8226 8.07774 31.8486 7.41628 33.0882C7.21837 33.458 7.09857 33.7445 7.02045 33.9632C6.70795 33.9059 6.39545 33.8539 6.08816 33.7966C5.64545 33.7184 5.19232 33.6351 4.7392 33.5622C4.70274 33.557 1.21316 32.9893 0.353783 33.7184C0.176699 33.8695 0.0829495 34.0726 0.0881575 34.2914C0.0985735 34.8174 0.431907 35.3695 0.728783 35.8591C0.832949 36.0309 0.931906 36.1924 0.994408 36.3174C1.79649 37.9736 5.16107 43.307 6.99441 46.1403C6.89024 46.2236 6.78607 46.3122 6.68712 46.4007C6.4892 46.5622 6.46837 46.8486 6.63503 47.0414C6.72357 47.1455 6.85378 47.2028 6.98399 47.2028C7.09337 47.2028 7.19753 47.1664 7.28607 47.0934C7.35378 47.0309 7.4267 46.9736 7.49962 46.9164C7.73399 47.2705 7.92149 47.5518 8.04128 47.7289C10.4267 51.208 13.0621 54.3486 15.8798 57.0622C19.8173 60.8539 23.7652 63.1455 27.6142 63.8695C27.8017 63.9007 27.9944 63.9372 28.1819 63.9632C28.2184 63.9841 28.2548 63.9997 28.2965 64.0049C29.1038 64.1976 30.2288 64.5309 31.2184 64.8278C31.6819 64.9632 32.1142 65.0934 32.4892 65.2028C35.135 65.958 37.9892 66.7341 40.9059 67.3174C44.8538 68.1039 48.7913 68.4997 52.6454 68.4997C57.3954 68.4997 62.01 67.9007 66.3277 66.708C69.4684 65.8382 72.4007 64.2757 75.2392 62.7653C76.4215 62.1351 77.6454 61.4841 78.8538 60.9007C79.7496 60.4684 80.8382 60.0674 81.9944 59.6403C86.0152 58.1559 91.0152 56.3122 91.2652 51.6664C91.3434 50.2809 91.0777 49.3226 90.4579 48.7393C88.8069 47.1768 85.7079 47.2757 82.6507 47.4268C83.9475 46.8903 84.9736 46.2184 85.8329 45.6611C86.2496 45.3903 86.6402 45.1299 86.9996 44.9372Z" fill="#BBAEC6"/>
<path fill-rule="evenodd" clip-rule="evenodd" d="M15.1819 24.3695C14.7339 24.4476 14.2131 26.3539 14.6506 26.4633C15.1558 26.5883 17.2652 26.3591 17.3537 26.0101C17.4423 25.6664 15.635 24.2966 15.1819 24.3695ZM3.74957 36.0883C3.46832 36.5205 4.97353 38.6508 5.55166 38.6455C6.13499 38.6455 7.54645 36.4997 7.24436 36.0726C6.94228 35.6455 4.03082 35.6612 3.74957 36.0883ZM22.7496 35.6351C22.5621 35.8591 21.3329 35.6872 21.3121 35.4633C21.2912 35.2341 22.2444 34.208 22.6194 34.2758C22.8537 34.3174 23.0152 35.3174 22.7496 35.6351Z" fill="#F1E9B2"/>
</svg>
