<svg width="68" height="68" viewBox="0 0 68 68" fill="none" xmlns="http://www.w3.org/2000/svg">
<path fill-rule="evenodd" clip-rule="evenodd" d="M8.09334 33.5622C8.10376 33.9268 7.91626 34.5206 8.01521 35.0258C8.49438 37.531 10.5881 39.9789 9.68709 42.6143C9.16626 44.1299 7.80167 44.9529 6.83292 46.1404C6.03084 47.1195 5.02563 50.9841 3.07251 48.9164C1.76521 47.5258 3.1298 42.2549 3.67146 40.432L8.09334 33.5622ZM58.135 53.1716C58.1454 53.1716 58.0933 53.0726 58.0881 53.057C57.8538 52.4268 57.7183 51.7393 57.5881 51.0831C57.2548 49.432 57.0256 47.6976 57.0673 46.0101C57.1142 43.6612 58.2131 44.4685 59.7756 43.6872C61.2652 42.9372 61.9006 38.2549 63.51 39.0831C64.3329 39.5049 64.661 40.682 64.859 41.5049C66.1558 46.906 61.0256 51.9268 56.9944 54.781L58.135 53.1716ZM15.4319 58.7289C15.1558 58.7341 15.859 58.3643 15.984 58.1195C16.2496 57.5935 16.4423 57.031 16.5985 56.4685C17.0308 54.9268 17.4267 51.4424 19.7392 51.6404C20.1871 51.6768 28.359 59.7862 21.859 59.1247L15.4319 58.7289ZM4.55688 57.0779C4.68709 57.1299 4.54126 57.3539 4.55688 57.4893C4.70792 58.6039 5.08292 59.682 5.5673 60.6924C6.34334 62.3174 8.18709 63.9737 8.41626 65.7914C8.89021 69.5362 4.51001 66.0518 3.67667 64.9164C2.57771 63.4164 3.49438 60.5466 3.79646 58.9112L4.55688 57.0779Z" fill="#F1E9B2"/>
<path fill-rule="evenodd" clip-rule="evenodd" d="M50.5726 24.0779C50.3747 25.0414 50.9684 26.0102 50.0674 26.5206C47.807 27.7966 44.1663 27.0727 43.1976 24.5414C43.0778 24.2289 43.0309 23.906 43.0361 23.5727C42.9997 23.5571 42.9632 23.5362 42.932 23.505C40.0778 20.8643 36.8799 22.5623 36.3018 22.906C36.2653 23.4841 36.0986 24.0727 35.7757 24.6456C35.3591 25.38 34.7497 26.156 33.9476 26.4998C29.1038 28.5831 23.2497 23.4425 28.0153 19.1091C28.8538 18.3487 29.8382 17.8696 30.9528 17.6977C31.3747 17.6352 31.833 17.7185 32.2705 17.7654C33.9372 17.9581 35.9007 19.781 36.2549 21.9477C37.4476 21.3539 40.4163 20.281 43.2184 22.6039C43.6455 21.3123 44.7757 20.0935 45.9841 19.5935C48.3955 18.5935 50.4736 20.0206 51.3799 21.8331C51.4007 21.8696 51.2393 22.0258 51.2236 22.0466C50.7809 22.5987 50.7132 23.3956 50.5726 24.0779Z" fill="#F1E9B2"/>
<path d="M50.6402 37.0466C50.6767 37.031 51.3381 37.4893 51.4423 37.5205C52.7808 37.906 54.3642 36.6247 55.0413 35.5258M52.0725 21.432C52.3069 21.7133 54.9215 26.3591 56.01 27.5258M50.9215 24.307C51.3225 26.0205 52.8017 28.3591 53.9058 29.3539M50.4267 45.4528C50.5308 45.932 50.6819 46.406 50.8486 46.8643C51.3538 48.2862 51.9996 49.6508 52.7131 50.9789C55.0517 55.3226 56.8433 59.1924 57.4944 64.1195M56.5413 37.7185C55.885 36.1039 54.6819 34.8643 53.5725 33.5518C51.3694 30.9424 50.6975 27.8018 50.8486 24.3539C50.9527 21.8435 53.6767 19.4997 53.6819 19.4841V19.5049C53.6246 19.5205 56.4319 23.1247 57.5881 24.1976C60.0881 26.5205 64.7652 30.1091 66.0881 33.208C67.9788 37.656 65.5569 45.4112 62.6767 49.1195C60.8173 51.5258 58.1975 53.5726 55.6142 55.1508M47.3017 7.94763C47.3954 8.25492 47.51 8.557 47.6298 8.85909C47.9319 9.6195 48.2652 10.3747 48.5933 11.1247C49.2704 12.6664 49.9735 14.1976 50.4371 15.8174C50.9527 17.6351 51.3798 19.6976 51.8277 21.531M41.6454 3.18721C41.8694 3.05179 42.1038 2.94763 42.3485 2.85908C43.0517 2.60388 43.7965 2.43721 44.5308 2.30179C47.2444 1.79658 49.9736 1.84346 52.7079 2.08825C53.3902 2.15075 54.0829 2.20804 54.7704 2.20804C54.7913 2.20804 54.9631 2.182 54.9736 2.20283C54.9892 2.23408 54.9267 2.307 54.9163 2.32783C54.4006 3.12471 53.9892 4.00492 53.5986 4.8695C52.9944 6.19242 50.7131 12.7862 49.6402 13.5258M24.7912 3.60388C25.2131 3.3695 26.984 2.70804 27.4319 2.52575C28.7704 1.98409 30.2027 1.62471 31.635 1.47367C34.2131 1.20283 36.7913 1.56742 39.2496 2.33304C40.6038 2.75492 41.9006 3.48408 43.2808 3.76533M18.4631 35.4945C18.4683 35.4945 18.5465 35.583 18.5517 35.5883C25.4996 42.3539 40.2704 40.9893 42.2756 40.7653C45.3225 40.4268 51.9579 38.2393 52.4475 32.0726M10.6298 28.5362C10.536 28.5726 7.07249 35.2601 6.7704 35.7601C2.85894 42.2549 -3.96919 51.0258 5.14019 56.5258M16.0985 11.9997C15.9162 12.0778 13.9683 16.406 13.8069 16.7497C12.3017 20.0153 11.2548 23.2549 10.8798 26.8383C10.661 28.9164 10.7079 31.1351 10.2027 33.1716M14.6975 14.7497C14.7652 14.7758 14.4058 14.0414 14.3017 13.6508C14.0725 12.7705 13.8798 11.8747 13.7027 10.9789C13.5048 9.96325 12.0777 1.67159 12.4579 0.99971C12.5204 0.885127 15.5412 0.963252 15.8277 0.963252C19.3537 0.963252 23.9267 1.04138 27.234 2.46325" stroke="#BBAEC6" stroke-width="0.86453" stroke-miterlimit="10" stroke-linecap="round" stroke-linejoin="round"/>
<path d="M31.3069 54.9841C31.2444 54.9216 31.4319 55.1039 31.4996 55.1612C31.6194 55.2549 31.734 55.3487 31.8485 55.4529C32.1558 55.7237 32.4475 56.0258 32.7287 56.3331C33.5985 57.2966 34.3954 58.4477 34.8902 59.656M28.6246 55.6977C28.6194 55.7341 29.0048 56.0049 29.036 56.0362C30.385 57.2393 31.2548 58.656 32.2912 60.0987M4.63498 56.3122C4.75477 55.9945 4.35894 56.9268 4.25998 57.2497C4.04644 57.9737 3.86415 58.7185 3.72352 59.4633C3.34331 61.4737 2.75477 64.1768 3.39019 66.2081M49.5621 31.682C49.7235 31.9008 50.484 31.9893 50.734 32.0831C51.5673 32.4164 52.3173 32.8956 53.0881 33.3487M48.9736 30.406C48.9371 30.4997 49.1715 30.3799 49.2704 30.3695C49.4944 30.3435 49.7235 30.3174 49.9475 30.2914C50.5673 30.2341 51.0308 30.432 51.6558 30.5154M47.9371 29.3852C47.859 29.4164 48.0725 29.2758 48.1402 29.2289C48.3798 29.0726 48.6246 28.932 48.8694 28.7966C49.3538 28.5206 50.2704 27.7966 50.8433 27.7654M32.3642 31.0466C32.3694 31.0101 32.1246 31.1456 31.8485 31.2706C31.4996 31.4268 31.1558 31.5883 30.8121 31.7549C29.8121 32.2341 28.8329 32.7602 27.8642 33.307C24.9006 34.9945 21.7964 36.9216 19.5152 39.5154M29.0308 30.4841C29.0465 30.5414 28.9058 30.4841 28.8485 30.4945C28.3902 30.5935 27.9371 30.7341 27.4944 30.8747C26.4319 31.2029 25.3902 31.5831 24.3589 31.9945C21.2704 33.2185 18.161 34.6143 15.3746 36.4424M31.3746 28.9008C31.3746 28.9529 31.2912 28.8331 31.2444 28.8174C31.1298 28.781 30.9996 28.7654 30.8746 28.7497C30.4579 28.6976 30.0412 28.6612 29.6194 28.6351C28.3798 28.557 27.1402 28.5831 25.9006 28.6404C22.0308 28.8018 17.6662 29.0362 14.0933 30.7289M4.47873 56.1039C4.53081 56.031 4.60373 56.2185 4.67665 56.2654C4.88498 56.4112 5.10373 56.5466 5.32769 56.6768C5.87977 56.9945 6.46832 57.2654 7.06207 57.5049C8.90582 58.2497 10.8537 58.6352 12.8381 58.7497C15.5308 58.906 18.2756 59.0622 20.9787 59.1039C24.9267 59.1612 27.635 58.9008 31.4371 60.281L31.4683 60.2914C34.6767 61.031 36.484 59.3799 34.5412 56.1404C33.7965 54.8956 32.6662 53.8852 31.5569 52.9737C26.859 49.1091 21.1298 47.0779 15.0204 47.5987C13.2235 47.7497 11.4475 48.0987 9.69228 48.5258C9.56207 48.557 8.03602 48.8435 8.00477 48.9789M40.8642 27.8018C40.9735 28.1924 41.3642 29.1456 41.5881 29.4841C42.9892 31.5674 44.5933 30.2185 44.8225 30.1143M40.8538 27.6924C40.8433 27.6872 40.8225 27.8383 40.8173 27.8487C40.786 28.0154 40.7444 28.1872 40.6975 28.3539C40.5725 28.781 40.4058 29.2081 40.1663 29.5883C39.4527 30.7133 37.7235 31.0726 36.5829 30.3747" stroke="#BBAEC6" stroke-width="0.86453" stroke-miterlimit="10" stroke-linecap="round" stroke-linejoin="round"/>
<path fill-rule="evenodd" clip-rule="evenodd" d="M52.6715 4.05703C52.6506 3.52579 46.8329 3.08308 45.859 4.3487C45.5986 4.69245 48.6142 7.93203 49.6559 9.2862C50.3486 10.1872 52.7184 5.17162 52.6715 4.05703ZM15.9527 4.10391C15.3329 4.68203 15.609 10.9789 16.9215 10.9529C18.2392 10.9268 24.0152 5.08308 23.8538 3.94245C23.6923 2.80183 16.984 3.14558 15.9527 4.10391ZM42.1559 26.5622C42.0361 26.6977 41.9059 26.8175 41.7756 26.932C41.5465 27.13 41.3017 27.3227 41.0309 27.4477L40.9163 27.4789C40.9215 27.5622 40.76 27.4112 40.6871 27.3695C40.5413 27.2914 40.4059 27.1977 40.2756 27.0987C40.0569 26.9268 38.9527 25.932 39.3381 25.6195C39.6663 25.3435 40.4475 25.4997 40.8329 25.5154C41.6454 25.557 43.2131 25.3383 42.1559 26.5622Z" fill="white"/>
</svg>
