<svg width="60" height="57" viewBox="0 0 60 57" fill="none" xmlns="http://www.w3.org/2000/svg">
<path d="M55.5832 21.0579L47.8086 14.2778L51.8429 6.97453C52.1413 6.43403 52.173 5.79984 51.9308 5.23195C51.6887 4.6655 51.2073 4.24895 50.6106 4.09041L35.5716 0.090681C34.4055 -0.219208 33.1573 0.283821 32.5318 1.31438L28.5465 7.89411L24.5626 1.31438C23.9371 0.283821 22.6874 -0.219208 21.5228 0.090681L6.48387 4.09041C5.88715 4.24895 5.40574 4.6655 5.1636 5.23195C4.92145 5.79984 4.95316 6.43403 5.25152 6.97453L9.28439 14.2778L1.51123 21.0579C1.06586 21.4456 0.871279 22.0221 0.99091 22.6016C1.11054 23.1795 1.51844 23.6321 2.08056 23.8123L7.93962 25.6875V37.5973C7.93962 38.4621 8.49454 39.2145 9.32043 39.4725L28.3822 45.4108C28.3995 45.4166 28.4153 45.4195 28.4326 45.4223C28.4427 45.4252 28.4528 45.4281 28.4629 45.4295C28.4903 45.4339 28.5191 45.4353 28.5465 45.4353C28.5465 45.4353 28.5465 45.4353 28.5479 45.4353C28.5753 45.4353 28.6041 45.4339 28.6315 45.4295C28.6416 45.4281 28.6517 45.4252 28.6618 45.4223C28.6791 45.4195 28.695 45.4166 28.7122 45.4108L47.774 39.4725C48.5999 39.2145 49.1548 38.4621 49.1548 37.5973V25.6875L55.0139 23.8123C55.576 23.6321 55.9839 23.1795 56.1035 22.6016C56.2231 22.0221 56.0286 21.4456 55.5832 21.0579ZM28.5465 19.5618L20.6869 17.1317L11.899 14.4147L28.5465 9.53436L45.1954 14.4147L36.6367 17.061L28.5465 19.5618ZM33.4788 1.88515C33.8492 1.27258 34.5944 0.972782 35.2877 1.15727L50.3252 5.15556C50.5918 5.22763 50.8066 5.41212 50.9147 5.66579C51.0213 5.91803 51.0084 6.20053 50.8743 6.44124L46.84 13.7474L29.3911 8.63208L33.4788 1.88515ZM6.17974 5.66579C6.28784 5.41212 6.5026 5.22763 6.76925 5.15556L21.8068 1.15727C21.9437 1.12124 22.0835 1.1025 22.2204 1.1025C22.7797 1.1025 23.3173 1.39365 23.6157 1.88515L27.7033 8.63208L23.4831 9.86875L10.2544 13.7474L6.2201 6.44124C6.08606 6.20053 6.07164 5.91803 6.17974 5.66579ZM2.07336 22.3782C2.05462 22.2902 2.03444 22.0654 2.23767 21.8895L10.116 15.0201L27.5203 20.3992L20.511 27.5598C20.0555 28.0253 19.3868 28.1911 18.7655 27.9936L2.41784 22.7601C2.16128 22.678 2.0921 22.4661 2.07336 22.3782ZM9.04513 37.5973V26.0406L18.4283 29.0444C18.7137 29.1352 19.0062 29.1799 19.2945 29.1799C20.0382 29.1799 20.7604 28.8844 21.3009 28.3323L27.9945 21.4932V44.1338L9.65049 38.4189C9.28872 38.3064 9.04513 37.9764 9.04513 37.5973ZM48.0493 37.5973C48.0493 37.9764 47.8057 38.3064 47.4439 38.4189L29.1 44.1338V21.4932L35.7936 28.3323C36.3341 28.8844 37.0562 29.1799 37.7999 29.1799C38.0882 29.1799 38.3808 29.1352 38.6662 29.0444L48.0493 26.0406V37.5973ZM55.0211 22.3782C55.0023 22.4661 54.9331 22.678 54.6751 22.7616L38.3289 27.9936C37.7077 28.1911 37.0389 28.0253 36.5834 27.5598L29.5742 20.3992L46.9784 15.0201L54.8568 21.8895C55.06 22.0654 55.0398 22.2902 55.0211 22.3782Z" fill="#F1E9B2"/>
<path d="M30.8441 34.9106V40.6529C30.8441 41.0075 31.007 41.3318 31.2938 41.5423C31.487 41.6835 31.7147 41.757 31.9453 41.757C32.0563 41.757 32.1687 41.7412 32.2783 41.7066L40.7072 39.0804C41.1713 38.9349 41.4827 38.5126 41.4827 38.0268V32.1634C41.4827 31.8103 41.3126 31.4774 41.0272 31.2698C40.7404 31.0623 40.3699 31.0046 40.0341 31.1141L31.6051 33.8613C31.1497 34.0098 30.8441 34.4321 30.8441 34.9106ZM40.3772 32.1634V38.0268L31.9496 40.6529L31.9482 34.9106L40.3772 32.1634Z" fill="#F1E9B2"/>
<path d="M1.54519 49.2471C1.45871 49.2672 1.37223 49.2816 1.2843 49.2932C1.19206 49.3033 1.1099 49.3234 1.03351 49.3436C0.900907 49.3897 0.792806 49.4719 0.710649 49.5901C0.598225 49.7486 0.501655 49.9576 0.413733 50.2243C0.311398 50.527 0.229241 50.9205 0.16294 51.4076C0.0908723 51.8991 0.0447493 52.4065 0.0202466 52.9383C-0.00569766 53.4716 -0.00569766 53.9891 0.0144812 54.4907C0.0346599 54.9922 0.0807828 55.4074 0.158615 55.7345C0.193208 55.9089 0.250861 56.0833 0.321487 56.2678C0.393554 56.4523 0.516068 56.595 0.680381 56.6873C0.766862 56.7492 0.921086 56.7997 1.14161 56.8516C1.36214 56.902 1.58699 56.9337 1.8176 56.9381C2.04245 56.9438 2.24712 56.9179 2.42729 56.8573C2.60025 56.7954 2.6925 56.6829 2.70258 56.5085C2.70258 56.4163 2.68817 56.324 2.66223 56.226C2.63196 56.1352 2.61178 56.043 2.59016 55.9507C2.45756 55.4074 2.37108 54.7818 2.33504 54.0655C2.78474 54.0957 3.23588 54.1015 3.69711 54.0756C4.15834 54.0496 4.44949 53.9631 4.5821 53.8204C4.68587 53.7066 4.76226 53.4515 4.8228 53.0407C4.88478 52.6313 4.76226 52.4007 4.45526 52.3503C4.3068 52.3301 4.03006 52.3085 3.63081 52.2941C3.22579 52.2782 2.8006 52.2681 2.35954 52.258C2.39125 51.8271 2.43738 51.4019 2.49791 50.9925C3.02112 50.9723 3.52847 50.9824 4.00988 51.0343C4.49129 51.0848 5.00729 51.1972 5.56077 51.3716C5.63716 51.4019 5.71931 51.4278 5.80724 51.4595C5.88939 51.4898 5.97587 51.51 6.05803 51.51C6.36504 51.5301 6.51926 51.2995 6.51926 50.8181C6.51926 50.3367 6.47314 50.0095 6.39098 49.8452C6.30882 49.7025 6.19063 49.5944 6.03209 49.518C5.86777 49.4416 5.71499 49.3797 5.57086 49.3335C4.98279 49.1548 4.3068 49.0669 3.53856 49.0727C2.77033 49.077 2.10443 49.1332 1.54519 49.2471Z" fill="white"/>
<path d="M8.48705 55.4592C8.48128 55.5096 8.48128 55.5759 8.49137 55.6639C8.49137 55.7402 8.50723 55.8022 8.52741 55.8483C8.52741 55.8786 8.5375 55.9247 8.55768 55.9853C8.56776 56.0472 8.58362 56.1135 8.6038 56.1856C8.62398 56.2678 8.6456 56.3341 8.66578 56.3802C8.68596 56.4422 8.70613 56.4825 8.73208 56.4984C8.80847 56.5705 8.8445 56.6007 8.8445 56.595C8.89639 56.6368 8.94251 56.667 8.97278 56.6872C9.03476 56.729 9.08088 56.7535 9.10539 56.765C9.13133 56.7794 9.17745 56.7953 9.23943 56.8155C9.42392 56.8573 9.64877 56.8919 9.90965 56.9178C10.2484 56.9639 10.5712 56.9899 10.8681 56.9942C11.031 57 11.191 57 11.3496 57C11.5081 57 11.6566 56.9841 11.7892 56.9639C12.076 56.9236 12.2662 56.8515 12.3527 56.7492C12.3989 56.693 12.4507 56.5849 12.5012 56.4263C12.5531 56.2721 12.5833 56.1092 12.5934 55.9406C12.6035 55.7561 12.5891 55.6019 12.5473 55.4794C12.4868 55.341 12.3945 55.2531 12.2706 55.2228C12.2504 55.2228 12.2245 55.2228 12.1999 55.2185C12.174 55.2127 12.1481 55.2069 12.1178 55.2026C12.0255 55.1925 11.9535 55.1868 11.8915 55.1767C11.8511 55.1767 11.805 55.1767 11.7589 55.1724C11.7128 55.1666 11.6667 55.1608 11.6205 55.1565C11.5485 55.1507 11.4461 55.1464 11.3034 55.1363C11.2674 54.8336 11.2472 54.4906 11.2371 54.1115C11.2213 53.7627 11.2213 53.4096 11.2371 53.0406C11.2515 52.6269 11.2775 52.268 11.3078 51.961C11.3294 51.6483 11.3755 51.2951 11.436 50.9002C11.6407 50.9103 11.7848 50.9103 11.8713 50.9103C12.0255 50.9161 12.1841 50.906 12.3426 50.8858C12.5012 50.8642 12.5891 50.7417 12.5992 50.5168C12.5992 50.4447 12.5992 50.3727 12.5934 50.3121C12.5833 50.2502 12.5733 50.1882 12.5632 50.1219C12.5531 50.106 12.543 50.0614 12.5329 49.9893C12.5012 49.8769 12.481 49.8091 12.481 49.7889C12.4608 49.7284 12.445 49.6664 12.4248 49.5944C12.4046 49.5439 12.3787 49.5079 12.3585 49.4762C12.2965 49.43 12.2605 49.3998 12.2403 49.3796L12.1178 49.2874C12.0616 49.2571 12.0155 49.2311 11.9837 49.211C11.9232 49.185 11.8771 49.1692 11.8454 49.1591C11.6724 49.1288 11.4519 49.0928 11.1752 49.0524C10.8725 49.0207 10.5554 48.9948 10.2224 48.9803C9.87362 48.9703 9.56662 48.9803 9.29997 49.0106C9.01458 49.0524 8.82432 49.123 8.73784 49.2254C8.67587 49.2974 8.62974 49.4055 8.58939 49.5482C8.5375 49.7025 8.50146 49.8653 8.49137 50.0354C8.48128 50.23 8.49714 50.3828 8.54326 50.4966C8.59371 50.6393 8.68163 50.7258 8.81423 50.7474C8.86468 50.7618 8.90072 50.7676 8.9108 50.7676C8.96269 50.7777 9.00882 50.7835 9.03908 50.7835C9.10539 50.7936 9.15727 50.7979 9.19763 50.7979C9.23366 50.8036 9.29564 50.808 9.3778 50.8137C9.32591 51.0905 9.27546 51.4277 9.23366 51.827C9.19331 52.1859 9.16304 52.5592 9.14142 52.9484C9.11692 53.3952 9.10539 53.7685 9.10539 54.0654C9.10539 54.4344 9.11692 54.7673 9.1371 55.0643H8.89639C8.62974 55.0643 8.49137 55.1969 8.48705 55.4592Z" fill="white"/>
<path d="M20.5693 49.3234C20.1845 49.2413 19.7953 49.1951 19.396 49.1951C18.9968 49.1951 18.6033 49.2254 18.2242 49.2874C17.763 49.3638 17.2917 49.4978 16.8002 49.6823C16.3087 49.8711 15.8734 50.1522 15.4842 50.5269C14.7059 51.275 14.4393 52.2018 14.6742 53.313C14.8183 54.0352 15.1095 54.691 15.5505 55.2747C15.7855 55.5961 16.0579 55.8685 16.3649 56.0891C16.6719 56.3082 16.9991 56.4826 17.3378 56.6166C17.763 56.7896 18.2084 56.8977 18.6739 56.938C19.0227 56.9697 19.3715 56.9697 19.7247 56.938C20.072 56.9078 20.4252 56.7997 20.774 56.6166C20.8965 56.5546 21.0248 56.4725 21.1588 56.3802C21.3433 56.2476 21.5883 55.9911 21.9054 55.6019C22.224 55.2185 22.2485 54.936 21.9832 54.7616C21.8751 54.7011 21.6546 54.5771 21.3217 54.3984C20.9844 54.2196 20.6313 54.0553 20.2623 53.9069C19.8933 53.7584 19.5503 53.6604 19.2433 53.61C18.9305 53.5638 18.746 53.6402 18.6955 53.8348C18.6235 54.0813 18.6076 54.3119 18.6494 54.5367C18.6595 54.6232 18.6898 54.6953 18.7417 54.7573C18.7921 54.8394 18.8685 54.9101 18.9665 54.972C19.0386 55.0225 19.1813 55.1046 19.396 55.2228C18.9045 55.2747 18.4188 55.1969 17.9475 55.0023C17.4704 54.8077 17.1591 54.4849 17.0049 54.0352C16.7901 53.4255 16.7901 52.9383 16.9991 52.5708C17.2095 52.2061 17.5064 51.9351 17.8956 51.7607C18.2848 51.5863 18.6999 51.4941 19.1409 51.4797C19.5805 51.4638 19.9293 51.4998 20.1845 51.582C20.3084 51.6223 20.4309 51.6685 20.5592 51.7103C20.6875 51.7564 20.8201 51.7766 20.9527 51.7766C21.0968 51.7766 21.251 51.6382 21.4096 51.3615C21.5163 51.1727 21.5883 50.9665 21.6287 50.7475C21.6647 50.5313 21.6863 50.3122 21.6863 50.0916C21.6863 49.9072 21.5725 49.7428 21.3476 49.6045C21.153 49.492 20.8965 49.3998 20.5693 49.3234Z" fill="white"/>
<path d="M24.6417 52.5707C24.5797 53.0622 24.5494 53.61 24.5437 54.2139C24.5394 54.8178 24.672 55.3453 24.9386 55.7907C25.1851 56.2217 25.5425 56.5287 26.0139 56.7132C26.4852 56.8977 26.9565 56.9798 27.4278 56.9481C28.0375 56.9178 28.5895 56.7189 29.081 56.36C29.6086 55.981 30.0193 55.4794 30.3105 54.8639C30.5973 54.2499 30.8121 53.6301 30.9504 53.006C31.0427 52.5751 31.1248 51.9712 31.207 51.1972C31.2892 50.4289 31.243 49.8351 31.0744 49.42C31.0124 49.2773 30.9144 49.1951 30.7818 49.1749C30.5469 49.1389 30.26 49.1793 29.9271 49.3032C29.5884 49.4257 29.3578 49.554 29.2252 49.6866C29.1632 49.7385 29.1228 49.799 29.1026 49.8654C29.0565 49.9691 29.0407 50.0816 29.0508 50.1983C29.0608 50.3165 29.0709 50.4246 29.0868 50.5269C29.1329 50.9161 29.1329 51.3254 29.0868 51.7607C29.0407 52.2018 28.9643 52.6053 28.8619 52.9844C28.7899 53.241 28.7034 53.4557 28.5996 53.6402C28.4512 53.8968 28.1903 54.1274 27.8112 54.322C27.4321 54.5166 27.1972 54.3681 27.1049 53.8651C27.0228 53.4658 27.0386 53.0305 27.1511 52.5707C27.2635 52.1095 27.3817 51.6886 27.5143 51.3096C27.546 51.2072 27.5964 51.0343 27.6786 50.7835C27.7608 50.537 27.7708 50.3684 27.7146 50.2862C27.5402 50.0715 27.2174 49.9172 26.7461 49.8351C26.2747 49.7529 25.9115 49.7227 25.655 49.7327C25.482 49.7428 25.3379 49.8711 25.2197 50.1118C25.0972 50.3583 25.0006 50.6336 24.9184 50.9521C24.8363 51.2692 24.7743 51.582 24.7282 51.889C24.6821 52.2018 24.6518 52.4266 24.6417 52.5707Z" fill="white"/>
<path d="M37.8352 55.0744C37.9779 55.55 38.1018 55.9752 38.1941 56.3543C38.2546 56.6411 38.3627 56.7997 38.527 56.8415C38.6856 56.8818 38.8802 56.8674 39.105 56.8054C39.2592 56.7651 39.4221 56.7031 39.6066 56.6166C39.7868 56.5345 39.9352 56.4321 40.0578 56.3139C40.15 56.2318 40.2163 56.1035 40.2466 55.9291C40.2725 55.7244 40.2682 55.4736 40.2264 55.1724C40.186 54.874 40.0736 54.4186 39.8891 53.8147C39.7046 53.2107 39.4899 52.5953 39.2333 51.9611C38.9767 51.3255 38.6957 50.7475 38.393 50.2199C38.0918 49.6967 37.7992 49.3595 37.5224 49.2052C37.3596 49.0726 37.1189 48.9804 36.8003 48.9285C36.4775 48.8781 36.2223 48.8723 36.0278 48.9141C35.8332 48.9544 35.6631 49.0568 35.5204 49.2153C35.3763 49.3739 35.2538 49.5339 35.1572 49.6867C34.9568 49.9937 34.7522 50.4044 34.5417 50.906C34.3327 51.4134 34.1382 51.9409 33.9638 52.4886C33.7894 53.0407 33.6409 53.574 33.5227 54.0957C33.4002 54.6189 33.3339 55.0484 33.318 55.3872C33.3079 55.5097 33.3079 55.638 33.3137 55.7706C33.318 55.9046 33.3382 56.0271 33.3699 56.1453C33.406 56.3039 33.4766 56.4264 33.5847 56.5128C33.7072 56.6166 33.8657 56.7031 34.056 56.7752C34.2448 56.8458 34.4192 56.8919 34.5778 56.9179C34.8041 56.9597 34.9986 56.9539 35.1514 56.902C35.3056 56.8516 35.408 56.6829 35.4541 56.3903C35.4945 56.0934 35.5507 55.7561 35.6328 55.3814C35.9398 55.4016 36.3189 55.3771 36.77 55.3093C37.2212 55.2488 37.5786 55.1666 37.8352 55.0744ZM35.8793 54.3825C36.0941 53.6042 36.3391 52.8821 36.6259 52.2162C36.9545 52.8417 37.2515 53.5019 37.5181 54.188C36.9445 54.3263 36.4011 54.3926 35.8793 54.3825Z" fill="white"/>
<path d="M42.3634 51.0242C42.3115 51.5661 42.3274 52.1355 42.4095 52.7192C42.4859 53.303 42.5781 53.8507 42.6906 54.3523C42.6963 54.3926 42.7007 54.4344 42.7122 54.4748C42.7223 54.5166 42.7324 54.5526 42.7425 54.5872C42.7828 54.8034 42.8909 55.1868 43.0552 55.7504C43.2181 56.3139 43.3723 56.6613 43.5107 56.8054C43.5712 56.8818 43.6534 56.9279 43.7456 56.9481C43.8379 56.9697 43.9359 56.9798 44.0281 56.9841C44.1564 56.9942 44.2991 57 44.4634 57C44.6263 57 44.7704 56.9899 44.903 56.9697C45.0155 56.9596 45.0976 56.9337 45.1495 56.8919C45.1999 56.8515 45.2216 56.7651 45.1999 56.631C45.1596 56.4163 45.1192 56.0934 45.0832 55.6538C45.0472 55.2185 45.1192 54.9158 45.298 54.7472C45.4623 54.593 45.6151 54.5425 45.7592 54.593C45.9019 54.6448 46.0403 54.7371 46.1786 54.8697C46.4136 55.1263 46.7263 55.4794 47.1256 55.9291C47.5263 56.3802 47.9154 56.6829 48.2931 56.8314C48.5338 56.9337 48.7543 56.9178 48.9489 56.7953C49.0973 56.7031 49.2617 56.5806 49.4361 56.4206C49.6105 56.262 49.7431 56.1092 49.8454 55.9651C49.9636 55.7965 49.9319 55.6581 49.7589 55.5457C49.6969 55.5154 49.6105 55.4635 49.4865 55.3915C49.4361 55.367 49.3899 55.341 49.3438 55.3151C49.2977 55.2891 49.2516 55.2589 49.2098 55.2286C49.0872 55.1565 48.995 55.1003 48.9388 55.0585C48.8264 54.9879 48.7442 54.9259 48.6837 54.874C48.6058 54.8178 48.5294 54.7515 48.4574 54.6693C48.3853 54.603 48.3291 54.5267 48.2787 54.4344C48.2268 54.3523 48.1864 54.2658 48.1561 54.1735C48.1143 54.0813 48.0942 53.9789 48.0942 53.8651C48.0841 53.7166 48.1244 53.5797 48.2268 53.4456C48.3392 53.303 48.4675 53.1747 48.6159 53.0623C48.7601 52.9484 48.8783 52.8057 48.9647 52.6313C49.1694 52.2219 49.1752 51.7867 48.9849 51.3355C48.7961 50.8858 48.5395 50.5111 48.2167 50.2242C47.5104 49.6102 46.6442 49.3277 45.6151 49.3854C44.5859 49.4416 43.6995 49.6823 42.9529 50.1118C42.6704 50.2761 42.5061 50.4044 42.46 50.4909C42.4138 50.5831 42.3836 50.7575 42.3634 51.0242ZM46.3732 51.1265C46.5418 51.177 46.686 51.2793 46.8085 51.4278C46.967 51.6425 46.9987 51.8731 46.9065 52.1138C46.8085 52.3546 46.6499 52.5246 46.4352 52.627C46.3011 52.6875 46.1628 52.7336 46.0143 52.7653C45.8658 52.7956 45.7232 52.8215 45.5848 52.8316C45.2922 52.8576 45.0673 52.7797 44.9131 52.5953C44.8367 52.5131 44.7863 52.3502 44.7546 52.1095C44.7243 51.8731 44.7286 51.6944 44.7704 51.582C44.8425 51.3917 44.9809 51.2591 45.1798 51.1827C45.5891 51.0386 45.9898 51.0184 46.3732 51.1265Z" fill="white"/>
<path d="M52.1861 50.2444C52.1155 50.3266 52.0838 50.4506 52.0953 50.6091C52.1054 50.7676 52.1155 50.8858 52.1256 50.9666C52.1357 51.275 52.1818 51.5762 52.264 51.8631C52.3043 52.0317 52.3461 52.1816 52.3865 52.3041C52.4268 52.4324 52.5407 52.5347 52.7137 52.6111C52.9083 52.7034 53.1288 52.7538 53.3652 52.7653C53.6001 52.7754 53.8249 52.7855 54.0455 52.7999C54.1579 52.8115 54.3064 52.836 54.4908 52.8677C54.671 52.9037 54.7878 52.9844 54.8396 53.1185C54.9319 53.3534 54.9982 53.5797 55.0501 53.7887C55.1524 54.2139 55.2288 54.6449 55.2807 55.0744C55.3311 55.5097 55.4234 55.9349 55.556 56.35C55.592 56.4826 55.6482 56.6267 55.7203 56.7853C55.7563 56.8775 55.8284 56.938 55.9351 56.964C56.0374 56.9899 56.1354 57 56.2277 57C56.4424 57 56.6831 56.9741 56.9498 56.9236C57.2164 56.8717 57.4355 56.7853 57.62 56.6512C57.744 56.559 57.8103 56.4105 57.8203 56.2058C57.8304 55.8268 57.8002 55.4275 57.7382 55.0023C57.6762 54.5829 57.6258 54.1779 57.584 53.7945C57.5638 53.61 57.5278 53.3837 57.4816 53.1127C57.4312 52.8417 57.4672 52.6313 57.5796 52.4828C57.6877 52.3402 57.8362 52.2321 58.0308 52.1499C58.2196 52.0735 58.394 52.0014 58.5583 51.9294C58.6751 51.8789 58.8091 51.8169 58.9619 51.7449C59.1103 51.6743 59.2184 51.5762 59.2804 51.448C59.3727 51.2433 59.3828 50.9204 59.315 50.4851C59.2444 50.0556 59.1464 49.7385 59.0138 49.5439C58.8956 49.3796 58.7169 49.3076 58.4805 49.3393C58.2715 49.3695 58.0654 49.42 57.8607 49.4921C57.656 49.5641 57.4571 49.6203 57.2525 49.6607C56.6269 49.789 56.0028 49.9115 55.3773 50.0297C54.7474 50.1522 54.1175 50.2098 53.4819 50.2098C53.1749 50.2098 52.8837 50.194 52.607 50.158C52.4023 50.132 52.2582 50.1637 52.1861 50.2444Z" fill="white"/>
</svg>
