<svg width="123" height="29" viewBox="0 0 123 29" fill="none" xmlns="http://www.w3.org/2000/svg">
<path d="M34.9676 13.4404L29.9914 9.113L32.5732 4.45078C32.7637 4.10703 32.7846 3.70078 32.6298 3.33917C32.4735 2.97756 32.1655 2.71119 31.7846 2.61L22.158 0.0579028C21.411 -0.140015 20.6119 0.181415 20.2116 0.839156L17.661 5.03709L15.1104 0.839156C14.7101 0.181415 13.911 -0.140015 13.1639 0.0579028L3.53889 2.61C3.15644 2.71119 2.84841 2.97756 2.69216 3.33917C2.53739 3.70078 2.55823 4.10703 2.7487 4.45078L5.33056 9.113L0.354348 13.4404C0.0701209 13.6874 -0.05488 14.0565 0.0225013 14.4255C0.0983947 14.7946 0.358812 15.0833 0.718933 15.1979L4.47044 16.3943V23.997C4.47044 24.5491 4.82461 25.0297 5.35437 25.1934L17.5553 28.9836C17.5657 28.9866 17.5762 28.9896 17.5881 28.9911C17.594 28.9926 17.6 28.994 17.6074 28.9955C17.6253 28.9985 17.6431 29 17.661 29C17.6788 29 17.6967 28.9985 17.7145 28.9955C17.722 28.994 17.7279 28.9926 17.7339 28.9911C17.7458 28.9896 17.7562 28.9866 17.7666 28.9836L29.9676 25.1934C30.4973 25.0297 30.8515 24.5491 30.8515 23.997V16.3943L34.603 15.1979C34.9631 15.0833 35.2236 14.7946 35.3009 14.4255C35.3768 14.0565 35.2518 13.6874 34.9676 13.4404ZM17.661 12.485L12.6297 10.9344L7.00468 9.2008L17.661 6.0862L28.3188 9.2008L22.8396 10.8898L17.661 12.485ZM20.8172 1.20374C21.0553 0.81237 21.5315 0.620406 21.975 0.737965L31.6015 3.29006C31.7712 3.33619 31.9096 3.45375 31.978 3.61595C32.0479 3.77667 32.039 3.95822 31.9527 4.11149L29.3709 8.77372L18.2012 5.50882L20.8172 1.20374ZM3.34395 3.61595C3.4124 3.45375 3.55079 3.33619 3.72044 3.29006L13.347 0.737965C13.4348 0.715644 13.5226 0.703739 13.6119 0.703739C13.969 0.703739 14.3142 0.888263 14.5047 1.20374L17.1208 5.50882L14.4199 6.299L5.9511 8.77372L3.36924 4.11149C3.28293 3.95822 3.274 3.77667 3.34395 3.61595ZM0.714469 14.2827C0.702564 14.2261 0.690659 14.0833 0.820124 13.9702L5.8633 9.58622L17.0032 13.0193L12.5166 17.5907C12.2249 17.8883 11.7964 17.994 11.4005 17.866L0.936196 14.5267C0.771017 14.4746 0.726374 14.3392 0.714469 14.2827ZM5.17729 23.997V16.6205L11.1833 18.5372C11.3663 18.5952 11.5538 18.625 11.7383 18.625C12.2145 18.625 12.6773 18.436 13.0226 18.0833L17.3068 13.7187V28.1682L5.56419 24.5208C5.33354 24.4494 5.17729 24.2381 5.17729 23.997ZM30.1447 23.997C30.1447 24.2381 29.9884 24.4494 29.7578 24.5208L18.0151 28.1682V13.7187L22.2994 18.0833C22.6446 18.436 23.1074 18.625 23.5836 18.625C23.7681 18.625 23.9556 18.5952 24.1387 18.5372L30.1447 16.6205V23.997ZM34.6075 14.2827C34.5956 14.3392 34.5509 14.4746 34.3858 14.5267L23.9214 17.866C23.5256 17.994 23.097 17.8883 22.8053 17.5907L18.3187 13.0193L29.4601 9.58622L34.5018 13.9702C34.6313 14.0833 34.6194 14.2261 34.6075 14.2827Z" fill="#F1E9B2"/>
<path d="M19.1312 22.2812V25.9464C19.1312 26.1741 19.2354 26.3809 19.4184 26.5149C19.5434 26.6056 19.6878 26.6518 19.8366 26.6518C19.9065 26.6518 19.978 26.6414 20.0494 26.619L25.4452 24.9434C25.7414 24.8512 25.9408 24.5803 25.9408 24.2708V20.5282C25.9408 20.3035 25.8321 20.0907 25.6491 19.9583C25.4661 19.8258 25.2295 19.7886 25.0137 19.8586L19.6193 21.6116C19.3277 21.7068 19.1312 21.9762 19.1312 22.2812ZM25.2339 20.5282V24.2708L19.8381 25.9464V22.2827L25.2339 20.5282Z" fill="#F1E9B2"/>
<path d="M47.2091 10.5011C47.0958 10.5276 46.9824 10.5465 46.8671 10.5616C46.7462 10.5748 46.6385 10.6013 46.5384 10.6277C46.3645 10.6882 46.2228 10.7959 46.1151 10.9508C45.9677 11.1587 45.8411 11.4327 45.7259 11.7822C45.5917 12.179 45.484 12.6949 45.3971 13.3335C45.3026 13.9779 45.2421 14.643 45.21 15.3402C45.176 16.0393 45.176 16.7177 45.2025 17.3752C45.2289 18.0328 45.2894 18.577 45.3914 19.0059C45.4368 19.2345 45.5123 19.4632 45.6049 19.705C45.6994 19.9469 45.86 20.1339 46.0754 20.2549C46.1888 20.3361 46.391 20.4022 46.6801 20.4703C46.9692 20.5364 47.2639 20.578 47.5663 20.5836C47.861 20.5912 48.1293 20.5572 48.3655 20.4778C48.5923 20.3966 48.7132 20.2492 48.7264 20.0206C48.7264 19.8996 48.7075 19.7787 48.6735 19.6502C48.6338 19.5312 48.6074 19.4102 48.579 19.2893C48.4052 18.577 48.2918 17.7569 48.2446 16.8178C48.8341 16.8575 49.4255 16.8651 50.0302 16.831C50.6348 16.797 51.0165 16.6837 51.1904 16.4966C51.3264 16.3473 51.4266 16.0129 51.5059 15.4744C51.5872 14.9377 51.4266 14.6354 51.0241 14.5693C50.8295 14.5428 50.4667 14.5145 49.9433 14.4956C49.4123 14.4748 48.8549 14.4616 48.2767 14.4484C48.3183 13.8834 48.3787 13.326 48.4581 12.7894C49.144 12.7629 49.8091 12.7761 50.4402 12.8441C51.0713 12.9103 51.7478 13.0577 52.4734 13.2863C52.5735 13.326 52.6812 13.36 52.7965 13.4016C52.9042 13.4412 53.0175 13.4677 53.1252 13.4677C53.5277 13.4941 53.7299 13.1918 53.7299 12.5607C53.7299 11.9296 53.6694 11.5007 53.5617 11.2853C53.454 11.0982 53.2991 10.9565 53.0912 10.8564C52.8758 10.7562 52.6755 10.675 52.4866 10.6145C51.7157 10.3802 50.8295 10.2649 49.8223 10.2725C48.8152 10.2782 47.9423 10.3519 47.2091 10.5011Z" fill="white"/>
<path d="M56.3096 18.645C56.302 18.7111 56.302 18.798 56.3152 18.9133C56.3152 19.0134 56.336 19.0947 56.3625 19.1552C56.3625 19.1948 56.3757 19.2553 56.4021 19.3347C56.4154 19.4159 56.4361 19.5028 56.4626 19.5973C56.4891 19.705 56.5174 19.7919 56.5439 19.8524C56.5703 19.9336 56.5968 19.9865 56.6308 20.0073C56.7309 20.1018 56.7782 20.1415 56.7782 20.1339C56.8462 20.1887 56.9066 20.2284 56.9463 20.2549C57.0276 20.3097 57.088 20.3418 57.1202 20.3569C57.1542 20.3758 57.2146 20.3966 57.2959 20.423C57.5377 20.4778 57.8325 20.5232 58.1745 20.5572C58.6186 20.6176 59.0418 20.6517 59.431 20.6573C59.6446 20.6649 59.8543 20.6649 60.0621 20.6649C60.27 20.6649 60.4646 20.6441 60.6385 20.6176C61.0145 20.5647 61.2639 20.4703 61.3773 20.3361C61.4377 20.2624 61.5057 20.1207 61.5719 19.9129C61.6399 19.7107 61.6796 19.4972 61.6928 19.2761C61.706 19.0342 61.6871 18.832 61.6323 18.6714C61.553 18.49 61.4321 18.3748 61.2696 18.3351C61.2431 18.3351 61.2091 18.3351 61.177 18.3294C61.143 18.3219 61.1089 18.3143 61.0693 18.3086C60.9483 18.2954 60.8539 18.2879 60.7726 18.2746C60.7197 18.2746 60.6592 18.2746 60.5988 18.269C60.5383 18.2614 60.4778 18.2539 60.4174 18.2482C60.3229 18.2406 60.1887 18.235 60.0017 18.2217C59.9544 17.8249 59.928 17.3752 59.9148 16.8783C59.894 16.421 59.894 15.9581 59.9148 15.4744C59.9337 14.9321 59.9677 14.4616 60.0074 14.0591C60.0357 13.6491 60.0962 13.1861 60.1755 12.6684C60.4438 12.6816 60.6328 12.6816 60.7462 12.6816C60.9483 12.6892 61.1562 12.676 61.364 12.6495C61.5719 12.6212 61.6871 12.4606 61.7004 12.1658C61.7004 12.0713 61.7004 11.9768 61.6928 11.8975C61.6796 11.8162 61.6664 11.735 61.6531 11.6481C61.6399 11.6273 61.6267 11.5687 61.6134 11.4742C61.5719 11.3269 61.5454 11.238 61.5454 11.2116C61.519 11.1322 61.4982 11.051 61.4717 10.9565C61.4453 10.8904 61.4113 10.8431 61.3848 10.8016C61.3036 10.7411 61.2563 10.7014 61.2299 10.675L61.0693 10.554C60.9956 10.5144 60.9351 10.4803 60.8935 10.4539C60.8142 10.4199 60.7537 10.3991 60.7121 10.3859C60.4854 10.3462 60.1963 10.2989 59.8335 10.246C59.4367 10.2045 59.021 10.1705 58.5845 10.1516C58.1273 10.1383 57.7248 10.1516 57.3752 10.1912C57.0011 10.246 56.7517 10.3386 56.6383 10.4728C56.5571 10.5673 56.4966 10.709 56.4437 10.896C56.3757 11.0982 56.3284 11.3117 56.3152 11.5347C56.302 11.7898 56.3228 11.9901 56.3832 12.1393C56.4494 12.3264 56.5646 12.4398 56.7385 12.4681C56.8046 12.487 56.8518 12.4946 56.8651 12.4946C56.9331 12.5078 56.9936 12.5154 57.0332 12.5154C57.1202 12.5286 57.1882 12.5343 57.2411 12.5343C57.2883 12.5418 57.3696 12.5475 57.4773 12.555C57.4093 12.9178 57.3431 13.36 57.2883 13.8834C57.2354 14.3539 57.1957 14.8433 57.1674 15.3534C57.1353 15.9392 57.1202 16.4286 57.1202 16.8178C57.1202 17.3015 57.1353 17.738 57.1617 18.1273H56.8462C56.4966 18.1273 56.3152 18.3011 56.3096 18.645Z" fill="white"/>
<path d="M72.1488 10.6013C71.6443 10.4936 71.1341 10.4331 70.6107 10.4331C70.0873 10.4331 69.5715 10.4728 69.0745 10.554C68.4699 10.6542 67.852 10.8299 67.2077 11.0718C66.5634 11.3193 65.9927 11.6878 65.4826 12.179C64.4622 13.1597 64.1127 14.3747 64.4206 15.8315C64.6096 16.7781 64.9913 17.6379 65.5695 18.4031C65.8775 18.8245 66.2346 19.1816 66.6371 19.4707C67.0395 19.7579 67.4685 19.9865 67.9125 20.1623C68.4699 20.389 69.0538 20.5307 69.6641 20.5836C70.1213 20.6252 70.5786 20.6252 71.0415 20.5836C71.4969 20.544 71.9599 20.4022 72.4171 20.1623C72.5777 20.081 72.7459 19.9733 72.9216 19.8524C73.1635 19.6786 73.4847 19.3422 73.9004 18.832C74.318 18.3294 74.3501 17.9591 74.0024 17.7305C73.8607 17.6511 73.5716 17.4886 73.1351 17.2543C72.693 17.02 72.2301 16.8046 71.7463 16.61C71.2626 16.4153 70.8129 16.2869 70.4104 16.2207C70.0004 16.1603 69.7586 16.2604 69.6924 16.5155C69.5979 16.8386 69.5772 17.1409 69.632 17.4357C69.6452 17.5491 69.6849 17.6435 69.7529 17.7248C69.819 17.8325 69.9192 17.9251 70.0477 18.0063C70.1421 18.0725 70.3292 18.1802 70.6107 18.3351C69.9664 18.4031 69.3296 18.3011 68.7118 18.046C68.0863 17.7909 67.6782 17.3677 67.476 16.7781C67.1945 15.9789 67.1945 15.3402 67.4685 14.8584C67.7443 14.3803 68.1336 14.0251 68.6437 13.7965C69.1539 13.5678 69.6981 13.4469 70.2763 13.428C70.8526 13.4072 71.3099 13.4545 71.6443 13.5622C71.8068 13.6151 71.9674 13.6755 72.1356 13.7303C72.3037 13.7908 72.4776 13.8172 72.6514 13.8172C72.8404 13.8172 73.0426 13.6359 73.2504 13.2731C73.3902 13.0255 73.4847 12.7553 73.5376 12.4681C73.5848 12.1847 73.6132 11.8975 73.6132 11.6084C73.6132 11.3665 73.4639 11.1511 73.1692 10.9697C72.9141 10.8223 72.5777 10.7014 72.1488 10.6013Z" fill="white"/>
<path d="M77.4875 14.8584C77.4063 15.5027 77.3666 16.2207 77.359 17.0124C77.3534 17.8042 77.5272 18.4957 77.8768 19.0796C78.1999 19.6446 78.6685 20.047 79.2863 20.2889C79.9042 20.5307 80.5221 20.6384 81.14 20.5969C81.9392 20.5572 82.6629 20.2964 83.3072 19.8259C83.9988 19.329 84.5373 18.6714 84.919 17.8646C85.295 17.0597 85.5766 16.2472 85.758 15.429C85.8789 14.8641 85.9866 14.0723 86.0943 13.0577C86.202 12.0506 86.1415 11.2721 85.9205 10.7279C85.8392 10.5408 85.7107 10.4331 85.5369 10.4067C85.2289 10.3594 84.8529 10.4123 84.4164 10.5748C83.9724 10.7354 83.67 10.9036 83.4962 11.0774C83.4149 11.1455 83.362 11.2248 83.3356 11.3117C83.2751 11.4478 83.2543 11.5952 83.2676 11.7482C83.2808 11.9032 83.294 12.0449 83.3148 12.179C83.3753 12.6892 83.3753 13.2258 83.3148 13.7965C83.2543 14.3747 83.1542 14.9037 83.02 15.4007C82.9256 15.737 82.8122 16.0186 82.6761 16.2604C82.4815 16.5968 82.1395 16.8991 81.6426 17.1542C81.1456 17.4092 80.8376 17.2146 80.7167 16.5552C80.609 16.0318 80.6298 15.4611 80.7772 14.8584C80.9246 14.2537 81.0795 13.702 81.2533 13.2051C81.2949 13.0709 81.361 12.8442 81.4687 12.5154C81.5764 12.1923 81.5897 11.9712 81.516 11.8635C81.2873 11.5819 80.8641 11.3798 80.2462 11.2721C79.6283 11.1644 79.1522 11.1247 78.8158 11.1379C78.5891 11.1511 78.4001 11.3193 78.2452 11.6349C78.0846 11.958 77.958 12.3189 77.8503 12.7365C77.7426 13.1521 77.6613 13.5622 77.6009 13.9646C77.5404 14.3747 77.5007 14.6694 77.4875 14.8584Z" fill="white"/>
<path d="M94.7834 18.1405C94.9705 18.764 95.133 19.3214 95.2539 19.8184C95.3333 20.1944 95.475 20.4022 95.6904 20.457C95.8983 20.5099 96.1533 20.491 96.4481 20.4098C96.6503 20.3569 96.8638 20.2756 97.1057 20.1623C97.3419 20.0546 97.5365 19.9204 97.6971 19.7655C97.818 19.6578 97.9049 19.4896 97.9446 19.261C97.9786 18.9926 97.973 18.6639 97.9182 18.269C97.8653 17.8778 97.7179 17.2807 97.476 16.489C97.2342 15.6973 96.9526 14.8905 96.6163 14.0591C96.2799 13.2258 95.9115 12.4681 95.5147 11.7766C95.1198 11.0907 94.7362 10.6485 94.3734 10.4463C94.1599 10.2725 93.8443 10.1516 93.4268 10.0835C93.0035 10.0174 92.6691 10.0098 92.414 10.0646C92.1589 10.1175 91.9359 10.2517 91.7489 10.4596C91.5599 10.6674 91.3993 10.8771 91.2727 11.0774C91.0101 11.4799 90.7417 12.0184 90.4659 12.676C90.1919 13.3411 89.9368 14.0326 89.7082 14.7507C89.4795 15.4744 89.2849 16.1735 89.13 16.8575C88.9694 17.5434 88.8825 18.1065 88.8617 18.5505C88.8484 18.7111 88.8484 18.8793 88.856 19.0531C88.8617 19.2288 88.8881 19.3894 88.9297 19.5444C88.9769 19.7522 89.0695 19.9128 89.2112 20.0262C89.3718 20.1623 89.5797 20.2756 89.8291 20.3701C90.0766 20.4627 90.3053 20.5232 90.5131 20.5572C90.8098 20.612 91.0649 20.6044 91.2651 20.5364C91.4673 20.4703 91.6015 20.2492 91.6619 19.8656C91.7148 19.4764 91.7885 19.0342 91.8962 18.5429C92.2987 18.5694 92.7957 18.5373 93.3871 18.4485C93.9785 18.3691 94.4471 18.2614 94.7834 18.1405ZM92.2194 17.2335C92.5009 16.2132 92.8221 15.2665 93.1981 14.3935C93.6289 15.2136 94.0182 16.079 94.3677 16.9784C93.6157 17.1598 92.9034 17.2467 92.2194 17.2335Z" fill="white"/>
<path d="M100.72 12.8309C100.652 13.5414 100.673 14.2877 100.78 15.053C100.88 15.8183 101.001 16.5363 101.149 17.1938C101.156 17.2467 101.162 17.3015 101.177 17.3544C101.19 17.4092 101.204 17.4565 101.217 17.5018C101.27 17.7853 101.411 18.2879 101.627 19.0267C101.84 19.7655 102.042 20.2209 102.224 20.4098C102.303 20.5099 102.411 20.5704 102.532 20.5969C102.653 20.6252 102.781 20.6384 102.902 20.6441C103.07 20.6573 103.257 20.6649 103.473 20.6649C103.686 20.6649 103.875 20.6517 104.049 20.6252C104.197 20.612 104.304 20.578 104.372 20.5232C104.438 20.4703 104.467 20.3569 104.438 20.1812C104.385 19.8996 104.333 19.4764 104.285 18.9001C104.238 18.3294 104.333 17.9326 104.567 17.7116C104.782 17.5094 104.983 17.4432 105.172 17.5094C105.359 17.5774 105.54 17.6983 105.721 17.8722C106.029 18.2085 106.439 18.6714 106.963 19.261C107.488 19.8524 107.998 20.2492 108.493 20.4438C108.809 20.578 109.098 20.5572 109.353 20.3966C109.548 20.2756 109.763 20.115 109.992 19.9053C110.22 19.6975 110.394 19.4972 110.528 19.3082C110.683 19.0871 110.642 18.9057 110.415 18.7584C110.334 18.7187 110.22 18.6507 110.058 18.5562C109.992 18.5241 109.931 18.49 109.871 18.456C109.81 18.422 109.75 18.3823 109.695 18.3427C109.534 18.2482 109.413 18.1745 109.34 18.1197C109.192 18.0271 109.085 17.9459 109.005 17.8778C108.903 17.8041 108.803 17.7172 108.709 17.6095C108.614 17.5226 108.541 17.4225 108.474 17.3015C108.406 17.1938 108.353 17.0805 108.314 16.9595C108.259 16.8386 108.233 16.7044 108.233 16.5552C108.219 16.3606 108.272 16.181 108.406 16.0053C108.554 15.8183 108.722 15.6501 108.917 15.5027C109.106 15.3534 109.26 15.1664 109.374 14.9377C109.642 14.4011 109.65 13.8305 109.4 13.2391C109.153 12.6495 108.816 12.1582 108.393 11.7822C107.467 10.9773 106.332 10.6069 104.983 10.6825C103.633 10.7562 102.471 11.0718 101.493 11.6348C101.122 11.8503 100.907 12.0184 100.846 12.1318C100.786 12.2527 100.746 12.4814 100.72 12.8309ZM105.976 12.9651C106.198 13.0312 106.386 13.1654 106.547 13.36C106.755 13.6415 106.797 13.9438 106.676 14.2594C106.547 14.5749 106.339 14.7979 106.058 14.9321C105.882 15.0114 105.701 15.0719 105.506 15.1135C105.311 15.1531 105.124 15.1872 104.943 15.2004C104.559 15.2344 104.265 15.1324 104.062 14.8905C103.962 14.7828 103.896 14.5693 103.855 14.2537C103.815 13.9438 103.82 13.7095 103.875 13.5622C103.97 13.3127 104.151 13.1389 104.412 13.0388C104.949 12.8498 105.474 12.8234 105.976 12.9651Z" fill="white"/>
<path d="M113.597 11.8087C113.504 11.9164 113.463 12.0789 113.478 12.2867C113.491 12.4946 113.504 12.6495 113.518 12.7553C113.531 13.1597 113.591 13.5546 113.699 13.9306C113.752 14.1517 113.807 14.3482 113.86 14.5088C113.912 14.677 114.062 14.8111 114.288 14.9113C114.544 15.0322 114.833 15.0984 115.143 15.1135C115.45 15.1267 115.745 15.1399 116.034 15.1588C116.182 15.1739 116.376 15.2061 116.618 15.2476C116.854 15.2949 117.007 15.4007 117.075 15.5764C117.196 15.8844 117.283 16.1811 117.351 16.455C117.486 17.0124 117.586 17.5774 117.654 18.1405C117.72 18.7111 117.841 19.2685 118.015 19.8127C118.062 19.9866 118.136 20.1755 118.23 20.3834C118.277 20.5043 118.372 20.5836 118.512 20.6177C118.646 20.6517 118.774 20.6649 118.895 20.6649C119.177 20.6649 119.492 20.6309 119.842 20.5648C120.191 20.4967 120.479 20.3834 120.72 20.2076C120.883 20.0867 120.97 19.8921 120.983 19.6238C120.996 19.1268 120.957 18.6034 120.875 18.046C120.794 17.4962 120.728 16.9652 120.673 16.4626C120.647 16.2207 120.599 15.9241 120.539 15.5688C120.473 15.2136 120.52 14.9377 120.667 14.7431C120.809 14.5561 121.004 14.4143 121.259 14.3066C121.506 14.2065 121.735 14.112 121.95 14.0175C122.104 13.9514 122.279 13.8702 122.48 13.7757C122.674 13.6831 122.816 13.5546 122.897 13.3864C123.018 13.1181 123.031 12.6949 122.942 12.1242C122.85 11.5612 122.721 11.1455 122.548 10.8904C122.393 10.675 122.158 10.5805 121.848 10.6221C121.574 10.6617 121.304 10.7279 121.036 10.8224C120.768 10.9168 120.507 10.9905 120.239 11.0434C119.418 11.2116 118.6 11.3722 117.78 11.5272C116.955 11.6878 116.129 11.7633 115.296 11.7633C114.893 11.7633 114.511 11.7426 114.149 11.6953C113.88 11.6613 113.691 11.7029 113.597 11.8087Z" fill="white"/>
</svg>
