<svg width="50" height="50" viewBox="0 0 50 50" fill="none" xmlns="http://www.w3.org/2000/svg">
<path d="M37.8957 36.9791H15.7082C13.6457 36.9791 11.6665 36.1041 10.2707 34.5833C8.87482 33.0625 8.1665 31.0208 8.33317 28.9583L10.0623 8.2083C10.1248 7.56246 9.89566 6.93747 9.45816 6.45831C9.02066 5.97914 8.4165 5.72913 7.77066 5.72913H4.1665C3.31234 5.72913 2.604 5.02079 2.604 4.16663C2.604 3.31246 3.31234 2.60413 4.1665 2.60413H7.79152C9.31235 2.60413 10.7498 3.24995 11.7707 4.35412C12.3332 4.97912 12.7498 5.7083 12.979 6.5208H38.9998C41.104 6.5208 43.0415 7.35413 44.4582 8.85413C45.854 10.375 46.5624 12.3541 46.3957 14.4583L45.2707 30.0833C45.0415 33.8958 41.7082 36.9791 37.8957 36.9791ZM13.0832 9.62495L11.4582 29.2083C11.354 30.4166 11.7498 31.5624 12.5623 32.4583C13.3748 33.3541 14.4998 33.8333 15.7082 33.8333H37.8957C40.0623 33.8333 42.0207 32 42.1873 29.8333L43.3123 14.2083C43.3957 12.9791 42.9998 11.8125 42.1873 10.9583C41.3748 10.0833 40.2498 9.60409 39.0207 9.60409H13.0832V9.62495Z" fill="#BBAEC6"/>
<path d="M33.8542 47.3958C31.5625 47.3958 29.6875 45.5208 29.6875 43.2292C29.6875 40.9375 31.5625 39.0625 33.8542 39.0625C36.1458 39.0625 38.0208 40.9375 38.0208 43.2292C38.0208 45.5208 36.1458 47.3958 33.8542 47.3958ZM33.8542 42.1875C33.2708 42.1875 32.8125 42.6458 32.8125 43.2292C32.8125 43.8125 33.2708 44.2708 33.8542 44.2708C34.4375 44.2708 34.8958 43.8125 34.8958 43.2292C34.8958 42.6458 34.4375 42.1875 33.8542 42.1875Z" fill="#BBAEC6"/>
<path d="M17.1877 47.3958C14.896 47.3958 13.021 45.5208 13.021 43.2292C13.021 40.9375 14.896 39.0625 17.1877 39.0625C19.4793 39.0625 21.3543 40.9375 21.3543 43.2292C21.3543 45.5208 19.4793 47.3958 17.1877 47.3958ZM17.1877 42.1875C16.6043 42.1875 16.146 42.6458 16.146 43.2292C16.146 43.8125 16.6043 44.2708 17.1877 44.2708C17.771 44.2708 18.2293 43.8125 18.2293 43.2292C18.2293 42.6458 17.771 42.1875 17.1877 42.1875Z" fill="#BBAEC6"/>
<path d="M43.75 18.2291H18.75C17.8958 18.2291 17.1875 17.5208 17.1875 16.6666C17.1875 15.8125 17.8958 15.1041 18.75 15.1041H43.75C44.6042 15.1041 45.3125 15.8125 45.3125 16.6666C45.3125 17.5208 44.6042 18.2291 43.75 18.2291Z" fill="#BBAEC6"/>
</svg>
