<svg width="45" height="45" viewBox="0 0 45 45" fill="none" xmlns="http://www.w3.org/2000/svg">
<path d="M22.5186 42.6563C21.3373 42.6563 20.1561 42.2625 19.2373 41.475L16.2748 38.925C15.9748 38.6625 15.2248 38.4 14.831 38.4H11.5873C8.81228 38.4 6.56229 36.1501 6.56229 33.3751V30.1687C6.56229 29.775 6.29979 29.0437 6.03729 28.7437L3.50603 25.7625C1.96853 23.9438 1.96853 21.0751 3.50603 19.2563L6.03729 16.2751C6.29979 15.9751 6.56229 15.2439 6.56229 14.8501V11.6437C6.56229 8.8687 8.81228 6.61883 11.5873 6.61883H14.831C15.2248 6.61883 15.9748 6.33752 16.2748 6.09377L19.2373 3.5438C21.0748 1.9688 23.9435 1.9688 25.781 3.5438L28.7435 6.09377C29.0435 6.35627 29.7936 6.61883 30.1873 6.61883H33.3748C36.1498 6.61883 38.3998 8.8687 38.3998 11.6437V14.8313C38.3998 15.2251 38.681 15.9751 38.9435 16.2751L41.4748 19.2375C43.0498 21.075 43.0498 23.9438 41.4748 25.7813L38.9435 28.7437C38.681 29.0437 38.4185 29.7937 38.4185 30.1875V33.3751C38.4185 36.1501 36.1685 38.4 33.3935 38.4H30.206C29.8123 38.4 29.0623 38.6813 28.7623 38.925L25.7998 41.475C24.8623 42.2625 23.6811 42.6563 22.5186 42.6563ZM11.5873 9.41256C10.3685 9.41256 9.37479 10.4062 9.37479 11.6249V14.8313C9.37479 15.9001 8.86853 17.2688 8.19353 18.075L5.66227 21.0562C5.00602 21.825 5.00602 23.1563 5.66227 23.925L8.19353 26.9062C8.88728 27.7312 9.39356 29.0999 9.39356 30.1499V33.3563C9.39356 34.5751 10.3873 35.5687 11.606 35.5687H14.8498C15.9373 35.5687 17.3061 36.075 18.1311 36.7875L21.0935 39.3375C21.8623 39.9937 23.2123 39.9937 23.9811 39.3375L26.9435 36.7875C27.7685 36.0938 29.1373 35.5687 30.2248 35.5687H33.4123C34.6311 35.5687 35.6248 34.5751 35.6248 33.3563V30.1687C35.6248 29.0812 36.131 27.7125 36.8435 26.8875L39.3748 23.925C40.031 23.1563 40.031 21.8062 39.3748 21.0375L36.8435 18.075C36.1498 17.25 35.6248 15.8813 35.6248 14.7938V11.6062C35.6248 10.3874 34.6311 9.39379 33.4123 9.39379H30.2248C29.156 9.39379 27.7685 8.88749 26.9435 8.17499L23.9811 5.62502C23.2123 4.96877 21.8623 4.96877 21.0935 5.62502L18.1311 8.17499C17.3061 8.86874 15.9373 9.39379 14.8498 9.39379H11.5873V9.41256Z" fill="#F1E9B2"/>
<path d="M26.2495 31.8187H22.912C22.1245 31.8187 20.9433 31.5749 20.2495 30.8812L17.6621 28.8938L19.387 26.6624L22.1058 28.7624C22.2933 28.8937 22.6308 28.9874 22.912 28.9874H26.2495C26.6995 28.9874 27.2433 28.5938 27.337 28.2001L29.4745 21.6936C29.5308 21.5249 29.5308 21.4125 29.512 21.375C29.4745 21.3188 29.3433 21.2624 29.1558 21.2624H25.6495C24.9745 21.2624 24.3558 20.9813 23.9058 20.4751C23.4745 19.9688 23.2683 19.2938 23.362 18.6001L23.8121 15.7688C23.8496 15.6188 23.7371 15.4312 23.6246 15.3937C23.5121 15.3749 23.3433 15.4125 23.2871 15.4687L19.7058 20.7937L17.3621 19.2187L20.962 13.875C21.712 12.75 23.2871 12.2626 24.5621 12.7313C25.9871 13.2001 26.9058 14.8126 26.587 16.2751L26.2495 18.4124H29.1558C30.262 18.4124 31.237 18.8812 31.8183 19.7062C32.3808 20.5125 32.512 21.5625 32.1558 22.5563L30.0558 28.9313C29.662 30.5438 27.9933 31.8187 26.2495 31.8187Z" fill="#F1E9B2"/>
<path d="M16.6879 30.8625H15.8067C13.0504 30.8625 12.6379 28.9312 12.6379 27.7874V19.2C12.6379 18.0563 13.0504 16.125 15.8067 16.125H16.6879C19.4442 16.125 19.8567 18.0563 19.8567 19.2V27.7874C19.8567 28.9312 19.4442 30.8625 16.6879 30.8625ZM15.488 28.0312C15.563 28.05 15.6755 28.05 15.8255 28.05H16.7067C16.8567 28.05 16.9692 28.05 17.0442 28.0312C17.0442 27.975 17.063 27.8999 17.063 27.7874V19.2C17.063 19.0875 17.063 19.0125 17.0442 18.9563C16.9692 18.9375 16.8567 18.9375 16.7067 18.9375H15.8255C15.6755 18.9375 15.563 18.9375 15.488 18.9563C15.488 19.0125 15.4692 19.0875 15.4692 19.2V27.7874C15.4692 27.8999 15.4692 27.975 15.488 28.0312Z" fill="#F1E9B2"/>
</svg>
