<svg width="45" height="45" viewBox="0 0 45 45" fill="none" xmlns="http://www.w3.org/2000/svg">
<path d="M17.7754 38.7937C16.8379 38.7937 16.1816 38.475 15.7879 38.175C15.0379 37.6312 13.8754 36.225 14.6066 33.075L15.6753 28.4625C15.7691 28.0687 15.5628 27.3562 15.2816 27.0562L11.5504 23.325C9.5816 21.3562 9.75034 19.65 10.0128 18.8062C10.2753 17.9625 11.1378 16.4812 13.8753 16.0125L18.6566 15.225C19.0129 15.1687 19.5941 14.7375 19.7441 14.4187L22.3879 9.13123C23.6629 6.58123 25.3503 6.20624 26.2503 6.20624C27.1503 6.20624 28.8378 6.58123 30.1128 9.13123L32.7566 14.4187C32.9253 14.7375 33.4878 15.1687 33.8441 15.225L38.6254 16.0125C41.3629 16.4625 42.2254 17.9625 42.4879 18.8062C42.7504 19.65 42.9191 21.3562 40.9503 23.325L37.2191 27.0562C36.9379 27.3375 36.7316 28.0687 36.8254 28.4625L37.8941 33.075C38.6253 36.2437 37.4628 37.6312 36.7128 38.175C35.9628 38.7187 34.2941 39.4125 31.4816 37.7438L27.0003 35.0813C26.6253 34.8563 25.8378 34.8563 25.4628 35.0813L20.9816 37.7438C19.6879 38.5312 18.6004 38.7937 17.7754 38.7937ZM26.2503 9.01874C25.9503 9.01874 25.4066 9.37498 24.9003 10.3875L22.2566 15.675C21.6941 16.8187 20.3629 17.7938 19.1066 18L14.3254 18.7875C13.2566 18.975 12.7691 19.3688 12.6754 19.6688C12.5816 19.9688 12.7503 20.5688 13.5191 21.3375L17.2504 25.0687C18.2066 26.025 18.7129 27.7687 18.4129 29.0812L17.3441 33.6937C17.0253 35.025 17.2316 35.7375 17.4378 35.9062C17.6441 36.0562 18.3941 36.0375 19.5566 35.325L24.0566 32.6625C25.3128 31.9125 27.2066 31.9125 28.4441 32.6625L32.9253 35.325C34.1066 36.0187 34.8566 36.0562 35.0629 35.9062C35.2691 35.7562 35.4753 35.0437 35.1566 33.6937L34.0878 29.0812C33.7878 27.75 34.2753 26.025 35.2503 25.0687L38.9816 21.3375C39.7504 20.5688 39.9191 19.95 39.8253 19.6688C39.7316 19.3875 39.2441 18.975 38.1753 18.7875L33.3941 18C32.1378 17.7938 30.8066 16.8187 30.2441 15.675L27.6003 10.3875C27.0941 9.37498 26.5503 9.01874 26.2503 9.01874Z" fill="#BBAEC6"/>
<path d="M15 10.7812H3.75C2.98125 10.7812 2.34375 10.1437 2.34375 9.375C2.34375 8.60625 2.98125 7.96875 3.75 7.96875H15C15.7688 7.96875 16.4062 8.60625 16.4062 9.375C16.4062 10.1437 15.7688 10.7812 15 10.7812Z" fill="#BBAEC6"/>
<path d="M9.375 37.0312H3.75C2.98125 37.0312 2.34375 36.3937 2.34375 35.625C2.34375 34.8562 2.98125 34.2188 3.75 34.2188H9.375C10.1438 34.2188 10.7812 34.8562 10.7812 35.625C10.7812 36.3937 10.1438 37.0312 9.375 37.0312Z" fill="#BBAEC6"/>
<path d="M5.625 23.9062H3.75C2.98125 23.9062 2.34375 23.2687 2.34375 22.5C2.34375 21.7312 2.98125 21.0938 3.75 21.0938H5.625C6.39375 21.0938 7.03125 21.7312 7.03125 22.5C7.03125 23.2687 6.39375 23.9062 5.625 23.9062Z" fill="#BBAEC6"/>
</svg>
